<?xml version="1.0" encoding="UTF-8"?>
<svg width="293px" height="293px" viewBox="0 0 293 293" version="1.1" xmlns="http://www.w3.org/2000/svg" xmlns:xlink="http://www.w3.org/1999/xlink">
    <title>rahatarkus-thumb-6</title>
    <defs>
        <polygon id="path-1" points="0 0 293 0 293 293 48 293 0 245"></polygon>
    </defs>
    <g id="Page-1" stroke="none" stroke-width="1" fill="none" fill-rule="evenodd">
        <g id="tykid" transform="translate(-771.000000, -624.000000)">
            <g id="Group" transform="translate(121.000000, 301.000000)">
                <g id="rahatarkus-thumb-6" transform="translate(650.000000, 323.000000)">
                    <g id="Bitmap-Copy">
                        <mask id="mask-2" fill="white">
                            <use xlink:href="#path-1"></use>
                        </mask>
                        <use id="Mask" fill="#E5E5E6" xlink:href="#path-1"></use>
                        <g id="Group-2" mask="url(#mask-2)">
                            <g transform="translate(131.000000, 156.000000)">
                                <g id="flash-copy-3" transform="translate(24.000000, 71.000000) rotate(-30.000000) translate(-24.000000, -71.000000) translate(10.000000, 49.000000)">
                                    <path d="M7.48000618,3.10738517 L1.62959968,26.9237145 L7.02966524,25.1767177 L-0.664324768,45.8903352 L21.4282664,17.8968901 L14.4852293,18.8972675 L22.4090203,5.21164913 L7.48000618,3.10738517 Z" id="Path-13" stroke="#00000F" fill="#FF4747"></path>
                                    <path d="M10.4906641,1.66048084 L4.64025764,25.4768102 L10.0403232,23.7298134 L2.3463332,44.4434309 L24.4389243,16.4499857 L17.4958873,17.4503632 L25.4196783,3.76474479 L10.4906641,1.66048084 Z" id="Path-13-Copy" stroke="#00000F" fill="#FF4747"></path>
                                    <path d="M13.6877628,-0.110518891 L7.83735628,23.7058105 L13.2374218,21.9588137 L5.54343184,42.6724312 L27.636023,14.678986 L20.6929859,15.6793634 L28.6167769,1.99374507 L13.6877628,-0.110518891 Z" id="Path-13-Copy-2" stroke="#00000F" fill="#FFFCEF"></path>
                                </g>
                                <g id="flash-copy-5" transform="translate(86.512773, 38.495913) rotate(11.000000) translate(-86.512773, -38.495913) translate(65.012773, 3.495913)">
                                    <path d="M10.6293139,7.17875333 L1.59254849,43.4947456 L10.1742462,40.7540398 L-1.52103192,71.836187 L31.726287,30.248722 L20.9086731,31.7873797 L33.4771897,10.3579035 L10.6293139,7.17875333 Z" id="Path-13" stroke="#00000F" fill="#FF4747"></path>
                                    <path d="M15.9147041,3.47836501 L6.87793875,39.7943573 L15.4596365,37.0536515 L3.76435834,68.1357986 L37.0116773,26.5483337 L26.1940634,28.0869914 L38.7625799,6.65751515 L15.9147041,3.47836501 Z" id="Path-13-Copy" stroke="#00000F" fill="#FF4747"></path>
                                    <path d="M20.4511539,-0.515901184 L11.4143885,35.8000911 L19.9960863,33.0593853 L8.30080813,64.1415324 L41.5481271,22.5540675 L30.7305132,24.0927252 L43.2990297,2.66324895 L20.4511539,-0.515901184 Z" id="Path-13-Copy-2" stroke="#00000F" fill="#FFFCEF"></path>
                                </g>
                                <g id="flash-copy-4" transform="translate(107.413822, 82.661183) rotate(30.000000) translate(-107.413822, -82.661183) translate(95.913822, 65.161183)">
                                    <path d="M5.6532459,2.87355048 L0.977377139,22.0479223 L5.20554756,20.6700289 L-1.01413053,37.5372015 L16.9662207,14.5874539 L11.4512674,15.3878893 L17.6640211,4.57888731 L5.6532459,2.87355048 Z" id="Path-13" stroke="#00000F" fill="#FF4747"></path>
                                    <path d="M8.36874928,1.3091333 L3.69288052,20.4835051 L7.92105094,19.1056117 L1.70137286,35.9727843 L19.6817241,13.0230367 L14.1667708,13.8234721 L20.3795245,3.01447014 L8.36874928,1.3091333 Z" id="Path-13-Copy" stroke="#00000F" fill="#FF4747"></path>
                                    <path d="M11.0842527,-0.255283876 L6.40838391,18.9190879 L10.6365543,17.5411946 L4.41687624,34.4083671 L22.3972275,11.4586195 L16.8822742,12.2590549 L23.0950279,1.45005296 L11.0842527,-0.255283876 Z" id="Path-13-Copy-2" stroke="#00000F" fill="#FFFCEF"></path>
                                </g>
                            </g>
                        </g>
                    </g>
                    <g id="nurk-copy" transform="translate(0.000000, 245.000000)">
                        <polygon id="Rectangle" fill="#00000F" points="0 0 48 0 48 48"></polygon>
                        <polygon id="→" fill="#FFFFFF" points="26 12.7107278 26 14.2073264 38.952381 14.2073264 32.6394558 19.8671904 33.6462585 21.1188911 42 13.4726326 42 13.4454217 33.6462585 5.79916318 32.6394558 7.07807474 38.952381 12.7107278"></polygon>
                    </g>
                </g>
            </g>
        </g>
    </g>
</svg>