<?xml version="1.0" encoding="UTF-8"?>
<svg width="293px" height="293px" viewBox="0 0 293 293" version="1.1" xmlns="http://www.w3.org/2000/svg" xmlns:xlink="http://www.w3.org/1999/xlink">
    <title>rahatarkus-thumb-2</title>
    <defs>
        <polygon id="path-1" points="0 0 293 0 293 293 48 293 0 245"></polygon>
    </defs>
    <g id="Page-1" stroke="none" stroke-width="1" fill="none" fill-rule="evenodd">
        <g id="tykid" transform="translate(-446.000000, -301.000000)">
            <g id="Group" transform="translate(121.000000, 301.000000)">
                <g id="rahatarkus-thumb-2" transform="translate(325.000000, 0.000000)">
                    <g id="Bitmap-Copy">
                        <mask id="mask-2" fill="white">
                            <use xlink:href="#path-1"></use>
                        </mask>
                        <use id="Mask" fill="#E5E5E6" xlink:href="#path-1"></use>
                        <g id="Group-Copy-2" mask="url(#mask-2)" fill-rule="nonzero" stroke="#00000F">
                            <g transform="translate(217.000000, 245.000000) rotate(-65.000000) translate(-217.000000, -245.000000) translate(194.000000, 223.000000)">
                                <path d="M23.8982238,6.30975607 C20.3976597,6.28743555 17.4887861,7.38068244 15.1777004,9.60400893 C12.8773929,11.7502161 11.4125691,14.7152576 10.75682,18.4930289 L8.32826929,18.4775438 L7.34968264,20.7792565 L10.7509694,20.800944 L10.3962241,21.5176383 C10.3752415,21.5600296 10.4050255,21.7409952 10.4068417,22.0275075 L10.4176244,23.7284897 L8.4073941,23.7156719 L7.42880744,26.0173847 L10.6382303,26.0378488 C11.2581379,30.1373039 12.64016,33.325683 14.8101098,35.5886934 C17.0934082,37.990401 20.0920224,39.1921877 23.7980947,39.2158186 C26.2573622,39.2314995 28.4439219,38.7209949 30.3555682,37.6764974 L30.3571478,32.0341248 C28.1251878,33.6210211 25.937166,34.3945817 23.8006508,34.3809587 C21.8764691,34.3686896 20.2996186,33.6979371 19.0649078,32.3801538 C17.7806703,31.0095116 16.8656759,28.9143493 16.3543877,26.0742965 L24.6219472,26.1270127 L25.6005339,23.8252999 L16.064318,23.7644945 L16.1154659,20.8351495 L26.5633764,20.9017681 L27.541963,18.6000553 L16.4628411,18.5294119 C17.0034274,16.0115536 17.9009949,14.1657564 19.1221437,12.9705123 C20.280752,11.8364819 21.7326527,11.2686562 23.4832463,11.2798184 C25.2925442,11.291355 27.2337148,11.9127711 29.3013543,13.1657228 L31.6097901,8.38541478 C28.8467692,7.02131001 26.2771984,6.32492504 23.8982238,6.30975607 Z" id="€" fill="#FF4747" transform="translate(19.434776, 22.762795) rotate(28.000000) translate(-19.434776, -22.762795) "></path>
                                <path d="M27.6573861,5.41840161 C24.1568221,5.39608109 21.2479485,6.48932799 18.9368627,8.71265447 C16.6365552,10.8588616 15.1717315,13.8239031 14.5159824,17.6016744 L12.0874317,17.5861893 L11.108845,19.8879021 L14.5101317,19.9095896 L14.1553865,20.6262838 C14.1344039,20.6686751 14.1641878,20.8496407 14.1660041,21.136153 L14.1767867,22.8371352 L12.1665565,22.8243175 L11.1879698,25.1260302 L14.3973927,25.1464943 C15.0173002,29.2459494 16.3993224,32.4343286 18.5692722,34.6973389 C20.8525706,37.0990465 23.8511848,38.3008332 27.557257,38.3244641 C30.0165246,38.3401451 32.2030842,37.8296404 34.1147306,36.7851429 L34.1163101,31.1427703 C31.8843502,32.7296666 29.6963283,33.5032273 27.5598131,33.4896043 C25.6356315,33.4773352 24.058781,32.8065827 22.8240702,31.4887994 C21.5398326,30.1181572 20.6248383,28.0229949 20.11355,25.1829421 L28.3811096,25.2356582 L29.3596963,22.9339454 L19.8234804,22.87314 L19.8746282,19.943795 L30.3225387,20.0104136 L31.3011254,17.7087009 L20.2220035,17.6380575 C20.7625898,15.1201992 21.6601573,13.274402 22.881306,12.0791578 C24.0399144,10.9451274 25.4918151,10.3773017 27.2424087,10.388464 C29.0517066,10.4000005 30.9928772,11.0214167 33.0605166,12.2743684 L35.3689524,7.49406032 C32.6059315,6.12995555 30.0363607,5.43357058 27.6573861,5.41840161 Z" id="€-copy" fill="#FF4747" transform="translate(23.193938, 21.871440) rotate(28.000000) translate(-23.193938, -21.871440) "></path>
                                <path d="M30.9876578,4.69784126 C27.4870937,4.67552074 24.5782202,5.76876763 22.2671344,7.99209411 C19.9668269,10.1383013 18.5020032,13.1033428 17.8462541,16.881114 L15.4177034,16.865629 L14.4391167,19.1673417 L17.8404034,19.1890292 L17.4856582,19.9057235 C17.4646756,19.9481148 17.4944595,20.1290804 17.4962757,20.4155927 L17.5070584,22.1165749 L15.4968282,22.1037571 L14.5182415,24.4054699 L17.7276643,24.425934 C18.3475719,28.5253891 19.7295941,31.7137682 21.8995439,33.9767786 C24.1828423,36.3784862 27.1814565,37.5802729 30.8875287,37.6039038 C33.3467963,37.6195847 35.5333559,37.1090801 37.4450023,36.0645826 L37.4465818,30.42221 C35.2146218,32.0091063 33.0266,32.7826669 30.8900848,32.7690439 C28.9659032,32.7567748 27.3890527,32.0860223 26.1543419,30.768239 C24.8701043,29.3975968 23.95511,27.3024345 23.4438217,24.4623817 L31.7113813,24.5150978 L32.689968,22.2133851 L23.153752,22.1525797 L23.2048999,19.2232347 L33.6528104,19.2898533 L34.6313971,16.9881405 L23.5522752,16.9174971 C24.0928614,14.3996388 24.990429,12.5538416 26.2115777,11.3585975 C27.3701861,10.2245671 28.8220867,9.65674136 30.5726804,9.66790361 C32.3819783,9.67944017 34.3231489,10.3008563 36.3907883,11.553808 L38.6992241,6.77349997 C35.9362032,5.4093952 33.3666324,4.71301022 30.9876578,4.69784126 Z" id="€-copy-2" fill="#FFFCEF" transform="translate(26.524210, 21.150880) rotate(28.000000) translate(-26.524210, -21.150880) "></path>
                            </g>
                        </g>
                        <g id="star" mask="url(#mask-2)" stroke="#00000F" stroke-linejoin="round">
                            <g transform="translate(146.000000, 175.000000)">
                                <polygon id="Star" fill="#FF4747" transform="translate(25.240384, 29.625698) rotate(10.000000) translate(-25.240384, -29.625698) " points="25.2164754 41.708428 11.8067585 51.4992265 16.4528717 34.9601475 3.56491717 24.4848309 19.8190064 24.0170701 25.2635294 7.75216997 30.6629958 24.0021569 46.9158506 24.4252124 33.9988152 34.9360174 38.5991088 51.4623803"></polygon>
                                <polygon id="Star-Copy" fill="#FF4747" transform="translate(29.505444, 27.510314) rotate(10.000000) translate(-29.505444, -27.510314) " points="29.4815357 39.5930434 16.0718187 49.3838419 20.7179319 32.8447629 7.82997741 22.3694462 24.0840666 21.9016855 29.5285897 5.63678536 34.9280561 21.8867723 51.1809109 22.3098278 38.2638754 32.8206328 42.864169 49.3469956"></polygon>
                                <polygon id="Star-Copy-2" fill="#FFFCEF" transform="translate(33.770504, 25.394929) rotate(10.000000) translate(-33.770504, -25.394929) " points="33.7465959 37.4776588 20.336879 47.2684572 24.9829921 30.7293783 12.0950377 20.2540616 28.3491269 19.7863009 33.7936499 3.52140074 39.1931163 19.7713877 55.4459711 20.1944432 42.5289356 30.7052482 47.1292293 47.231611"></polygon>
                            </g>
                        </g>
                        <g id="star-copy" mask="url(#mask-2)" stroke="#00000F" stroke-linejoin="round">
                            <g transform="translate(227.000000, 175.000000)">
                                <polygon id="Star" fill="#FF4747" transform="translate(18.796375, 20.910810) rotate(10.000000) translate(-18.796375, -20.910810) " points="18.7744049 29.6970505 8.99926454 36.8216195 12.389557 24.7912057 3 17.1757029 14.8455687 16.8312086 18.8176437 5 22.7483153 16.8175046 34.5927497 17.1209184 25.1764696 24.7690321 28.5246576 36.7877608"></polygon>
                                <polygon id="Star-Copy" fill="#FF4747" transform="translate(21.796375, 19.910810) rotate(10.000000) translate(-21.796375, -19.910810) " points="21.7744049 28.6970505 11.9992645 35.8216195 15.389557 23.7912057 6 16.1757029 17.8455687 15.8312086 21.8176437 4 25.7483153 15.8175046 37.5927497 16.1209184 28.1764696 23.7690321 31.5246576 35.7877608"></polygon>
                                <polygon id="Star-Copy-2" fill="#FFFCEF" transform="translate(24.796375, 18.910810) rotate(10.000000) translate(-24.796375, -18.910810) " points="24.7744049 27.6970505 14.9992645 34.8216195 18.389557 22.7912057 9 15.1757029 20.8455687 14.8312086 24.8176437 3 28.7483153 14.8175046 40.5927497 15.1209184 31.1764696 22.7690321 34.5246576 34.7877608"></polygon>
                            </g>
                        </g>
                    </g>
                    <g id="nurk-copy" transform="translate(0.000000, 245.000000)">
                        <polygon id="Rectangle" fill="#00000F" points="0 0 48 0 48 48"></polygon>
                        <polygon id="→" fill="#FFFFFF" points="26 12.7107278 26 14.2073264 38.952381 14.2073264 32.6394558 19.8671904 33.6462585 21.1188911 42 13.4726326 42 13.4454217 33.6462585 5.79916318 32.6394558 7.07807474 38.952381 12.7107278"></polygon>
                    </g>
                </g>
            </g>
        </g>
    </g>
</svg>