<?xml version="1.0" encoding="UTF-8"?>
<svg width="293px" height="293px" viewBox="0 0 293 293" version="1.1" xmlns="http://www.w3.org/2000/svg" xmlns:xlink="http://www.w3.org/1999/xlink">
    <title>rahatarkus-thumb-5</title>
    <defs>
        <polygon id="path-1" points="0 0 293 0 293 293 48 293 0 245"></polygon>
    </defs>
    <g id="Page-1" stroke="none" stroke-width="1" fill="none" fill-rule="evenodd">
        <g id="tykid" transform="translate(-446.000000, -624.000000)">
            <g id="Group" transform="translate(121.000000, 301.000000)">
                <g id="rahatarkus-thumb-5" transform="translate(325.000000, 323.000000)">
                    <g id="Bitmap-Copy">
                        <mask id="mask-2" fill="white">
                            <use xlink:href="#path-1"></use>
                        </mask>
                        <use id="Mask" fill="#FF4747" xlink:href="#path-1"></use>
                        <g id="Group-Copy" mask="url(#mask-2)" fill-rule="nonzero" stroke="#00000F">
                            <g transform="translate(166.000000, 187.000000)">
                                <path d="M21.567147,9.8357208 C18.2141736,9.82860248 15.4234129,10.8815515 13.2007473,13.008561 C10.9855107,15.0650503 9.56969245,17.900177 8.92759921,21.5081381 L6.59536312,21.5031617 L5.66744279,23.6560602 L8.93207397,23.663026 L8.58069497,24.8612228 L8.58421519,26.5026331 L6.65011805,26.4985063 L5.72219772,28.6514047 L8.78272374,28.657935 C9.35793975,32.5693245 10.668557,35.6073942 12.7411268,37.7574342 C14.9172486,40.0344847 17.7831357,41.1652102 21.3303521,41.1728165 C23.6823271,41.177799 25.7760543,40.6843389 27.6093977,39.6849244 L27.6334029,34.3643773 C25.4949834,35.8729338 23.4014941,36.61234 21.3603204,36.6079847 C19.5078498,36.6040321 17.9929041,35.9674383 16.8096921,34.7110409 C15.5768864,33.4019823 14.703135,31.3951518 14.2239351,28.6695451 L22.1629733,28.6864848 L23.0908936,26.5335863 L13.9582368,26.5140998 L14.0201186,23.6738825 L24.0460652,23.6952751 L24.9739855,21.5423766 L14.3556489,21.51972 C14.8845785,19.095168 15.7573075,17.3175453 16.9407909,16.1654317 C18.0594614,15.0764131 19.4578309,14.5275676 21.1410851,14.5311592 C22.8746634,14.5348582 24.7317891,15.1171583 26.7072707,16.2991779 L28.9213614,11.7701025 C26.2894147,10.4897632 23.8389175,9.84060268 21.567147,9.8357208 Z" id="€" fill="#FF4747" transform="translate(17.248365, 25.504269) rotate(-20.000000) translate(-17.248365, -25.504269) "></path>
                                <path d="M23.3546808,6.58274783 C20.0017075,6.57562951 17.2109468,7.62857851 14.9882811,9.75558804 C12.7730445,11.8120774 11.3572263,14.6472041 10.715133,18.2551651 L8.38289696,18.2501888 L7.45497663,20.4030872 L10.7196078,20.410053 L10.3682288,21.6082498 L10.371749,23.2496601 L8.4376519,23.2455333 L7.50973156,25.3984317 L10.5702576,25.4049621 C11.1454736,29.3163515 12.4560908,32.3544212 14.5286606,34.5044612 C16.7047825,36.7815117 19.5706695,37.9122373 23.1178859,37.9198435 C25.4698609,37.924826 27.5635881,37.4313659 29.3969315,36.4319514 L29.4209368,31.1114043 C27.2825173,32.6199608 25.1890279,33.359367 23.1478543,33.3550117 C21.2953836,33.3510591 19.7804379,32.7144653 18.5972259,31.4580679 C17.3644202,30.1490094 16.4906689,28.1421788 16.011469,25.4165721 L23.9505071,25.4335118 L24.8784274,23.2806133 L15.7457706,23.2611268 L15.8076525,20.4209095 L25.833599,20.4423021 L26.7615193,18.2894037 L16.1431828,18.2667471 C16.6721123,15.8421951 17.5448413,14.0645723 18.7283247,12.9124588 C19.8469953,11.8234401 21.2453648,11.2745946 22.9286189,11.2781862 C24.6621973,11.2818852 26.5193229,11.8641853 28.4948045,13.0462049 L30.7088953,8.51712953 C28.0769485,7.23679019 25.6264514,6.5876297 23.3546808,6.58274783 Z" id="€-copy" fill="#FF4747" transform="translate(19.035899, 22.251296) rotate(-20.000000) translate(-19.035899, -22.251296) "></path>
                                <path d="M24.9871318,3.74490999 C21.6341585,3.73779167 18.8433978,4.79074067 16.6207321,6.9177502 C14.4054955,8.97423953 12.9896773,11.8093662 12.347584,15.4173273 L10.015348,15.4123509 L9.08742763,17.5652494 L12.3520588,17.5722152 L12.0006798,18.770412 L12.0042,20.4118223 L10.0701029,20.4076955 L9.14218256,22.5605939 L12.2027086,22.5671242 C12.7779246,26.4785137 14.0885418,29.5165834 16.1611116,31.6666234 C18.3372335,33.9436739 21.2031205,35.0743994 24.7503369,35.0820057 C27.1023119,35.0869882 29.1960391,34.5935281 31.0293825,33.5941136 L31.0533878,28.2735665 C28.9149683,29.782123 26.8214789,30.5215292 24.7803053,30.5171739 C22.9278346,30.5132212 21.4128889,29.8766274 20.2296769,28.6202301 C18.9968712,27.3111715 18.1231199,25.304341 17.64392,22.5787343 L25.5829581,22.595674 L26.5108784,20.4427755 L17.3782216,20.423289 L17.4401035,17.5830717 L27.46605,17.6044643 L28.3939703,15.4515658 L17.7756338,15.4289092 C18.3045633,13.0043572 19.1772923,11.2267344 20.3607757,10.0746209 C21.4794463,8.9856023 22.8778158,8.43675681 24.5610699,8.4403484 C26.2946483,8.44404738 28.1517739,9.02634745 30.1272555,10.2083671 L32.3413463,5.67929169 C29.7093995,4.39895235 27.2589023,3.74979187 24.9871318,3.74490999 Z" id="€-copy-2" fill="#FFFCEF" transform="translate(20.668350, 19.413458) rotate(-20.000000) translate(-20.668350, -19.413458) "></path>
                            </g>
                        </g>
                        <g id="Group-Copy-2" mask="url(#mask-2)" fill-rule="nonzero" stroke="#00000F">
                            <g transform="translate(197.176899, 201.000000)">
                                <path d="M31.7448613,8.1280499 C27.0618717,8.11004221 23.1680404,9.57968253 20.0693748,12.5513253 C17.0218424,15.3861772 15.0610911,19.2882321 14.1619023,24.2517381 L10.9750737,24.2393709 L9.53463672,27.6000886 L14.0234808,27.6175086 L13.6645869,28.3374534 C13.633682,28.3994488 13.6584065,28.6588901 13.6600492,29.082515 L13.6681175,31.1631543 L11.0626977,31.1530433 L9.62226078,34.5137611 L13.9751579,34.5306535 C14.798198,39.9132768 16.6281413,44.0995246 19.4904967,47.0752676 C22.5352844,50.2680423 26.5400622,51.8627511 31.4966305,51.8821588 C34.8205142,51.8948903 37.7730103,51.1906 40.3518426,49.7612365 L40.3735454,41.9077607 C37.3568114,44.1101055 34.4041259,45.1915768 31.5236815,45.1803985 C29.0230493,45.1706942 26.9751843,44.3081233 25.3745417,42.6049531 C23.7238235,40.8484997 22.547945,38.173828 21.8800571,34.5613304 L32.7405228,34.603477 L34.1809598,31.2427593 L21.4743062,31.1934481 L21.5452438,27.6466986 L35.3287663,27.7001889 L36.7692033,24.3394712 L22.0544736,24.2823671 C22.7740689,21.0928017 23.9352159,18.7414269 25.5068076,17.2081331 C27.0138677,15.7377985 28.900236,15.0007986 31.1711869,15.0096116 C33.5869882,15.0189867 36.1786863,15.8581697 38.9406766,17.5498205 L42.161601,10.9281531 C38.4283043,9.07861701 34.9570241,8.14067655 31.7448613,8.1280499 Z" id="€" fill="#FF4747" transform="translate(25.802272, 30.005104) rotate(28.000000) translate(-25.802272, -30.005104) "></path>
                                <path d="M36.7298375,6.95308266 C32.0468478,6.93507497 28.1530166,8.40471529 25.054351,11.376358 C22.0068186,14.2112099 20.0460673,18.1132648 19.1468785,23.0767709 L15.9600499,23.0644036 L14.5196129,26.4251214 L19.008457,26.4425414 L18.6495631,27.1624862 C18.6186582,27.2244816 18.6433826,27.4839229 18.6450254,27.9075478 L18.6530937,29.9881871 L16.0476739,29.9780761 L14.607237,33.3387938 L18.9601341,33.3556863 C19.7831742,38.7383095 21.6131175,42.9245574 24.4754729,45.9003004 C27.5202606,49.0930751 31.5250384,50.6877838 36.4816067,50.7071916 C39.8054904,50.7199231 42.7579864,50.0156328 45.3368188,48.5862692 L45.3585216,40.7327934 C42.3417876,42.9351383 39.3891021,44.0166095 36.5086577,44.0054313 C34.0080255,43.995727 31.9601605,43.1331561 30.3595179,41.4299859 C28.7087997,39.6735324 27.5329212,36.9988608 26.8650333,33.3863632 L37.725499,33.4285098 L39.165936,30.0677921 L26.4592824,30.0184808 L26.53022,26.4717314 L40.3137425,26.5252216 L41.7541795,23.1645039 L27.0394498,23.1073999 C27.7590451,19.9178344 28.9201921,17.5664597 30.4917838,16.0331659 C31.9988438,14.5628313 33.8852122,13.8258314 36.1561631,13.8346444 C38.5719644,13.8440194 41.1636625,14.6832025 43.9256528,16.3748532 L47.1465771,9.75318585 C43.4132804,7.90364977 39.9420003,6.96570931 36.7298375,6.95308266 Z" id="€-copy" fill="#FF4747" transform="translate(30.787248, 28.830137) rotate(28.000000) translate(-30.787248, -28.830137) "></path>
                                <path d="M41.1460673,6.0032531 C36.4630777,5.98524542 32.5692464,7.45488573 29.4705808,10.4265285 C26.4230485,13.2613804 24.4622971,17.1634353 23.5631084,22.1269413 L20.3762797,22.1145741 L18.9358427,25.4752918 L23.4246868,25.4927118 L23.0657929,26.2126566 C23.0348881,26.274652 23.0596125,26.5340933 23.0612552,26.9577182 L23.0693235,29.0383575 L20.4639038,29.0282465 L19.0234668,32.3889643 L23.3763639,32.4058567 C24.199404,37.78848 26.0293473,41.9747278 28.8917028,44.9504708 C31.9364905,48.1432455 35.9412683,49.7379543 40.8978366,49.757362 C44.2217202,49.7700935 47.1742163,49.0658032 49.7530486,47.6364397 L49.7747514,39.7829639 C46.7580175,41.9853087 43.8053319,43.06678 40.9248876,43.0556017 C38.4242553,43.0458974 36.3763903,42.1833265 34.7757478,40.4801563 C33.1250296,38.7237029 31.9491511,36.0490312 31.2812632,32.4365336 L42.1417289,32.4786802 L43.5821658,29.1179625 L30.8755123,29.0686513 L30.9464498,25.5219018 L44.7299723,25.5753921 L46.1704093,22.2146744 L31.4556796,22.1575703 C32.1752749,18.9680049 33.3364219,16.6166301 34.9080137,15.0833363 C36.4150737,13.6130017 38.301442,12.8760018 40.5723929,12.8848148 C42.9881942,12.8941899 45.5798924,13.7333729 48.3418826,15.4250237 L51.562807,8.80335629 C47.8295103,6.95382021 44.3582302,6.01587975 41.1460673,6.0032531 Z" id="€-copy-2" fill="#FFFCEF" transform="translate(35.203478, 27.880308) rotate(28.000000) translate(-35.203478, -27.880308) "></path>
                            </g>
                        </g>
                    </g>
                    <g id="nurk-copy" transform="translate(0.000000, 245.000000)">
                        <polygon id="Rectangle" fill="#00000F" points="0 0 48 0 48 48"></polygon>
                        <polygon id="→" fill="#FFFFFF" points="25 13.7107278 25 15.2073264 37.952381 15.2073264 31.6394558 20.8671904 32.6462585 22.1188911 41 14.4726326 41 14.4454217 32.6462585 6.79916318 31.6394558 8.07807474 37.952381 13.7107278"></polygon>
                    </g>
                </g>
            </g>
        </g>
    </g>
</svg>