<?xml version="1.0" encoding="UTF-8"?>
<svg width="293px" height="293px" viewBox="0 0 293 293" version="1.1" xmlns="http://www.w3.org/2000/svg" xmlns:xlink="http://www.w3.org/1999/xlink">
    <title>rahatarkus-thumb-3</title>
    <defs>
        <polygon id="path-1" points="0 0 293 0 293 293 48 293 0 245"></polygon>
    </defs>
    <g id="Page-1" stroke="none" stroke-width="1" fill="none" fill-rule="evenodd">
        <g id="tykid" transform="translate(-771.000000, -301.000000)">
            <g id="Group" transform="translate(121.000000, 301.000000)">
                <g id="rahatarkus-thumb-3" transform="translate(650.000000, 0.000000)">
                    <g id="Bitmap-Copy">
                        <mask id="mask-2" fill="white">
                            <use xlink:href="#path-1"></use>
                        </mask>
                        <use id="Mask" fill="#3B3B47" xlink:href="#path-1"></use>
                        <g id="Group-31" mask="url(#mask-2)">
                            <g transform="translate(142.000000, 144.008726)">
                                <g id="star" transform="translate(0.000000, 33.991274)" stroke-linejoin="round">
                                    <polygon id="Star" stroke="#00000F" fill="#FF4747" transform="translate(25.240384, 29.625698) rotate(10.000000) translate(-25.240384, -29.625698) " points="25.2164754 41.708428 11.8067585 51.4992265 16.4528717 34.9601475 3.56491717 24.4848309 19.8190064 24.0170701 25.2635294 7.75216997 30.6629958 24.0021569 46.9158506 24.4252124 33.9988152 34.9360174 38.5991088 51.4623803"></polygon>
                                    <polygon id="Star-Copy" stroke="#00000F" fill="#FF4747" transform="translate(29.505444, 27.510314) rotate(10.000000) translate(-29.505444, -27.510314) " points="29.4815357 39.5930434 16.0718187 49.3838419 20.7179319 32.8447629 7.82997741 22.3694462 24.0840666 21.9016855 29.5285897 5.63678536 34.9280561 21.8867723 51.1809109 22.3098278 38.2638754 32.8206328 42.864169 49.3469956"></polygon>
                                    <polygon id="Star-Copy-2" stroke="#00000F" fill="#FFFCEF" transform="translate(33.770504, 25.394929) rotate(10.000000) translate(-33.770504, -25.394929) " points="33.7465959 37.4776588 20.336879 47.2684572 24.9829921 30.7293783 12.0950377 20.2540616 28.3491269 19.7863009 33.7936499 3.52140074 39.1931163 19.7713877 55.4459711 20.1944432 42.5289356 30.7052482 47.1292293 47.231611"></polygon>
                                </g>
                                <g id="star-copy" transform="translate(80.000000, 76.991274)" stroke-linejoin="round">
                                    <polygon id="Star" stroke="#00000F" fill="#FF4747" transform="translate(18.796375, 20.910810) rotate(10.000000) translate(-18.796375, -20.910810) " points="18.7744049 29.6970505 8.99926454 36.8216195 12.389557 24.7912057 3 17.1757029 14.8455687 16.8312086 18.8176437 5 22.7483153 16.8175046 34.5927497 17.1209184 25.1764696 24.7690321 28.5246576 36.7877608"></polygon>
                                    <polygon id="Star-Copy" stroke="#00000F" fill="#FF4747" transform="translate(21.796375, 19.910810) rotate(10.000000) translate(-21.796375, -19.910810) " points="21.7744049 28.6970505 11.9992645 35.8216195 15.389557 23.7912057 6 16.1757029 17.8455687 15.8312086 21.8176437 4 25.7483153 15.8175046 37.5927497 16.1209184 28.1764696 23.7690321 31.5246576 35.7877608"></polygon>
                                    <polygon id="Star-Copy-2" stroke="#00000F" fill="#FFFCEF" transform="translate(24.796375, 18.910810) rotate(10.000000) translate(-24.796375, -18.910810) " points="24.7744049 27.6970505 14.9992645 34.8216195 18.389557 22.7912057 9 15.1757029 20.8455687 14.8312086 24.8176437 3 28.7483153 14.8175046 40.5927497 15.1209184 31.1764696 22.7690321 34.5246576 34.7877608"></polygon>
                                </g>
                                <g id="flash-copy-5" transform="translate(92.499924, 33.000000) rotate(1.000000) translate(-92.499924, -33.000000) translate(71.999924, 1.000000)">
                                    <path d="M9.91888132,5.82643568 L1.58199034,39.6763087 L9.46758803,37.1318709 L-1.35066306,66.1804924 L29.4451173,27.2611901 L19.4781241,28.6935189 L31.0297024,8.79426109 L9.91888132,5.82643568 Z" id="Path-13" stroke="#00000F" fill="#FF4747"></path>
                                    <path d="M14.9934174,2.47247036 L6.65652644,36.3223433 L14.5421241,33.7779056 L3.72387305,62.8265271 L34.5196534,23.9072248 L24.5526602,25.3395536 L36.1042385,5.44029577 L14.9934174,2.47247036 Z" id="Path-13-Copy" stroke="#00000F" fill="#FF4747"></path>
                                    <path d="M20.1542558,-0.492210715 L11.8173648,33.3576623 L19.7029625,30.8132245 L8.88471139,59.861846 L39.6804918,20.9425437 L29.7134985,22.3748725 L41.2650769,2.47561469 L20.1542558,-0.492210715 Z" id="Path-13-Copy-2" stroke="#00000F" fill="#FFFCEF"></path>
                                </g>
                            </g>
                        </g>
                    </g>
                    <g id="nurk-copy" transform="translate(0.000000, 245.000000)">
                        <polygon id="Rectangle" fill="#00000F" points="0 0 48 0 48 48"></polygon>
                        <polygon id="→" fill="#FFFFFF" points="25 13.7107278 25 15.2073264 37.952381 15.2073264 31.6394558 20.8671904 32.6462585 22.1188911 41 14.4726326 41 14.4454217 32.6462585 6.79916318 31.6394558 8.07807474 37.952381 13.7107278"></polygon>
                    </g>
                </g>
            </g>
        </g>
    </g>
</svg>