<?xml version="1.0" encoding="UTF-8"?>
<svg width="293px" height="293px" viewBox="0 0 293 293" version="1.1" xmlns="http://www.w3.org/2000/svg" xmlns:xlink="http://www.w3.org/1999/xlink">
    <title>rahatarkus-thumb-1</title>
    <defs>
        <polygon id="path-1" points="0 0 293 0 293 293 48 293 0 245"></polygon>
    </defs>
    <g id="Page-1" stroke="none" stroke-width="1" fill="none" fill-rule="evenodd">
        <g id="tykid" transform="translate(-121.000000, -301.000000)">
            <g id="Group" transform="translate(121.000000, 301.000000)">
                <g id="rahatarkus-thumb-1">
                    <g id="Bitmap-Copy">
                        <mask id="mask-2" fill="white">
                            <use xlink:href="#path-1"></use>
                        </mask>
                        <use id="Mask" fill="#FF4747" xlink:href="#path-1"></use>
                        <g id="Group-2" mask="url(#mask-2)">
                            <g transform="translate(185.000000, 181.000000)">
                                <g id="exclamation-copy">
                                    <path d="M19.9,65.4528302 L5.78888889,65.4528302 L5.78888889,79.7358491 L19.9,79.7358491 L19.9,65.4528302 Z M19.1444444,11.1981132 L5.78888889,11.1981132 L5.78888889,29.447413 L9.41732849,59.1037736 L15.4204197,59.1037736 L19.1444444,29.4466173 L19.1444444,11.1981132 Z" id="!" stroke="#00000F" fill="#FF4747" fill-rule="nonzero" transform="translate(12.844444, 45.466981) rotate(-8.000000) translate(-12.844444, -45.466981) "></path>
                                    <path d="M24.4333333,60.8679245 L10.3222222,60.8679245 L10.3222222,75.1509434 L24.4333333,75.1509434 L24.4333333,60.8679245 Z M23.6777778,6.61320755 L10.3222222,6.61320755 L10.3222222,24.8625074 L13.9506618,54.5188679 L19.953753,54.5188679 L23.6777778,24.8617116 L23.6777778,6.61320755 Z" id="!-copy" stroke="#00000F" fill="#FF4747" fill-rule="nonzero" transform="translate(17.377778, 40.882075) rotate(-8.000000) translate(-17.377778, -40.882075) "></path>
                                    <path d="M28.2111111,55.5188679 L14.1,55.5188679 L14.1,69.8018868 L28.2111111,69.8018868 L28.2111111,55.5188679 Z M27.4555556,1.26415094 L14.1,1.26415094 L14.1,19.5134508 L17.7284396,49.1698113 L23.7315308,49.1698113 L27.4555556,19.512655 L27.4555556,1.26415094 Z" id="!-copy-2" stroke="#00000F" fill="#FFFCEF" fill-rule="nonzero" transform="translate(21.155556, 35.533019) rotate(-8.000000) translate(-21.155556, -35.533019) "></path>
                                </g>
                                <g id="question" transform="translate(34.000000, 27.000000)">
                                    <path d="M33.4409808,58.1795918 L21.4628266,58.1795918 L21.4628266,69.9081633 L33.4409808,69.9081633 L33.4409808,58.1795918 Z M27.7412256,10.4887755 C24.7813307,10.4887755 22.1032615,10.9839556 19.7081359,11.9795574 C17.3223885,12.9712609 15.2843564,14.350646 13.5954546,16.1197503 C11.9037958,17.8917426 10.5890421,19.9864591 9.64928639,22.4026714 C8.76044687,24.6879728 8.26765761,27.1886467 8.16797345,29.9040816 L19.3116988,29.9040816 C19.3450631,28.5594202 19.5139161,27.2935777 19.8170642,26.1063959 C20.1641261,24.7472402 20.7010409,23.5626194 21.4239428,22.5506834 C22.1571272,21.5243537 23.0951167,20.7026499 24.2389943,20.0867929 C25.3798841,19.4725445 26.7390169,19.1591837 28.3198694,19.1591837 C30.6793997,19.1591837 32.5120288,19.8257666 33.8358686,21.1200258 C35.1530854,22.4078101 35.8445693,24.3861117 35.8462556,27.0880491 C35.9040098,28.682635 35.6123175,30.0074638 34.9928321,31.069306 C34.3882724,32.1055644 33.5974033,33.0562075 32.6185003,33.9198374 C31.6721965,34.754707 30.6424432,35.589637 29.5291428,36.4245078 C28.4534102,37.2312064 27.4317943,38.1861348 26.4636572,39.2885974 C25.500688,40.3851751 24.6594971,41.709933 23.9373413,43.2610365 C23.2172584,44.8076878 22.7814638,46.7277945 22.6201142,49.018525 L22.6201142,52.2204082 L32.7796736,52.2204082 L32.7796736,49.5467436 C33.0102673,47.781171 33.5866891,46.3143297 34.496421,45.140629 C35.3764944,44.0051925 36.3843202,42.9974924 37.5198989,42.117529 C38.6291836,41.2579409 39.807781,40.3983283 41.0557268,39.5387398 C42.2595757,38.7095255 43.3560898,37.7061137 44.3458937,36.5291969 C45.3338661,35.3544577 46.1599404,33.9385158 46.8274077,32.2834039 C47.4965408,30.6241616 47.8244129,28.5089378 47.8244129,25.9408163 C47.8244129,24.3965666 47.4882264,22.7332658 46.8226762,20.9498145 C46.1573478,19.1669575 45.0502648,17.5057731 43.5070579,15.9627592 C41.9506911,14.4065871 39.8955765,13.1091965 37.3469741,12.063059 C34.7800371,11.0093956 31.5771669,10.4887755 27.7412256,10.4887755 Z" id="?-copy-3" stroke="#00000F" fill="#FF4747" fill-rule="nonzero" transform="translate(27.989216, 40.198469) rotate(15.000000) translate(-27.989216, -40.198469) "></path>
                                    <path d="M38.4497707,55.0785714 L26.4716165,55.0785714 L26.4716165,66.8071429 L38.4497707,66.8071429 L38.4497707,55.0785714 Z M32.7500155,7.3877551 C29.7901206,7.3877551 27.1120513,7.88293524 24.7169257,8.87853704 C22.3311784,9.8702405 20.2931463,11.2496256 18.6042445,13.0187299 C16.9125857,14.7907222 15.597832,16.8854387 14.6580763,19.301651 C13.7692368,21.5869524 13.2764475,24.0876263 13.1767633,26.8030612 L24.3204886,26.8030612 C24.353853,25.4583998 24.5227059,24.1925573 24.8258541,23.0053755 C25.172916,21.6462198 25.7098308,20.461599 26.4327327,19.4496629 C27.165917,18.4233333 28.1039066,17.6016295 29.2477842,16.9857725 C30.388674,16.371524 31.7478068,16.0581633 33.3286593,16.0581633 C35.6881895,16.0581633 37.5208187,16.7247462 38.8446584,18.0190054 C40.1618753,19.3067897 40.8533592,21.2850913 40.8550455,23.9870286 C40.9127997,25.5816146 40.6211074,26.9064434 40.001622,27.9682856 C39.3970623,29.004544 38.6061932,29.9551871 37.6272902,30.818817 C36.6809863,31.6536866 35.6512331,32.4886166 34.5379327,33.3234874 C33.4622,34.130186 32.4405842,35.0851143 31.4724471,36.187577 C30.5094779,37.2841546 29.6682869,38.6089126 28.9461312,40.1600161 C28.2260482,41.7066674 27.7902537,43.6267741 27.6289041,45.9175046 L27.6289041,49.1193878 L37.7884635,49.1193878 L37.7884635,46.4457232 C38.0190572,44.6801506 38.595479,43.2133093 39.5052109,42.0396086 C40.3852843,40.9041721 41.3931101,39.8964719 42.5286887,39.0165086 C43.6379735,38.1569205 44.8165709,37.2973079 46.0645167,36.4377194 C47.2683656,35.608505 48.3648797,34.6050933 49.3546835,33.4281764 C50.342656,32.2534373 51.1687303,30.8374954 51.8361976,29.1823835 C52.5053306,27.5231412 52.8332028,25.4079174 52.8332028,22.8397959 C52.8332028,21.2955462 52.4970163,19.6322454 51.8314661,17.848794 C51.1661377,16.0659371 50.0590547,14.4047527 48.5158478,12.8617388 C46.959481,11.3055667 44.9043664,10.0081761 42.355764,8.9620386 C39.788827,7.90837524 36.5859568,7.3877551 32.7500155,7.3877551 Z" id="?-copy-4" stroke="#00000F" fill="#FF4747" fill-rule="nonzero" transform="translate(32.998006, 37.097449) rotate(15.000000) translate(-32.998006, -37.097449) "></path>
                                    <path d="M43.8075838,52.7826531 L31.8294296,52.7826531 L31.8294296,64.5112245 L43.8075838,64.5112245 L43.8075838,52.7826531 Z M38.1078286,5.09183673 C35.1479337,5.09183673 32.4698645,5.58701687 30.0747389,6.58261867 C27.6889915,7.57432213 25.6509594,8.9537072 23.9620577,10.7228115 C22.2703988,12.4948038 20.9556451,14.5895203 20.0158894,17.0057326 C19.1270499,19.291034 18.6342606,21.7917079 18.5345765,24.5071429 L29.6783018,24.5071429 C29.7116661,23.1624814 29.8805191,21.8966389 30.1836673,20.7094571 C30.5307291,19.3503014 31.0676439,18.1656807 31.7905458,17.1537446 C32.5237302,16.1274149 33.4617197,15.3057111 34.6055973,14.6898541 C35.7464871,14.0756057 37.10562,13.7622449 38.6864725,13.7622449 C41.0460027,13.7622449 42.8786318,14.4288279 44.2024716,15.723087 C45.5196884,17.0108713 46.2111724,18.9891729 46.2128586,21.6911103 C46.2706128,23.2856962 45.9789205,24.6105251 45.3594351,25.6723672 C44.7548754,26.7086256 43.9640063,27.6592688 42.9851033,28.5228986 C42.0387995,29.3577682 41.0090462,30.1926982 39.8957459,31.027569 C38.8200132,31.8342676 37.7983973,32.789196 36.8302602,33.8916586 C35.8672911,34.9882363 35.0261001,36.3129943 34.3039443,37.8640977 C33.5838614,39.4107491 33.1480669,41.3308557 32.9867173,43.6215862 L32.9867173,46.8234694 L43.1462766,46.8234694 L43.1462766,44.1498049 C43.3768703,42.3842322 43.9532922,40.9173909 44.863024,39.7436902 C45.7430974,38.6082537 46.7509233,37.6005536 47.8865019,36.7205902 C48.9957866,35.8610021 50.174384,35.0013895 51.4223298,34.141801 C52.6261787,33.3125867 53.7226928,32.3091749 54.7124967,31.1322581 C55.7004691,29.957519 56.5265434,28.5415771 57.1940108,26.8864651 C57.8631438,25.2272228 58.1910159,23.111999 58.1910159,20.5438776 C58.1910159,18.9996279 57.8548294,17.336327 57.1892792,15.5528757 C56.5239509,13.7700187 55.4168679,12.1088343 53.8736609,10.5658204 C52.3172941,9.00964836 50.2621796,7.71225769 47.7135772,6.66612023 C45.1466401,5.61245687 41.94377,5.09183673 38.1078286,5.09183673 Z" id="?-copy-5" stroke="#00000F" fill="#FFFCEF" fill-rule="nonzero" transform="translate(38.355819, 34.801531) rotate(15.000000) translate(-38.355819, -34.801531) "></path>
                                </g>
                            </g>
                        </g>
                    </g>
                    <g id="nurk-copy" transform="translate(0.000000, 245.000000)">
                        <polygon id="Rectangle" fill="#00000F" points="0 0 48 0 48 48"></polygon>
                        <polygon id="→" fill="#FFFFFF" points="25 13.7107278 25 15.2073264 37.952381 15.2073264 31.6394558 20.8671904 32.6462585 22.1188911 41 14.4726326 41 14.4454217 32.6462585 6.79916318 31.6394558 8.07807474 37.952381 13.7107278"></polygon>
                    </g>
                </g>
            </g>
        </g>
    </g>
</svg>