<svg id="Layer_1" data-name="Layer 1" xmlns="http://www.w3.org/2000/svg" xmlns:xlink="http://www.w3.org/1999/xlink" width="414.00003" height="736" viewBox="0 0 414.00003 736"><defs><style>.cls-1{fill:none;}.cls-2{clip-path:url(#clip-path);}.cls-3{fill:#ff3a2c;}.cls-4{fill:#fffced;}</style><clipPath id="clip-path"><rect class="cls-1" x="0.00002" width="414" height="736"/></clipPath></defs><title>sajaga-m-et</title><g class="cls-2"><rect class="cls-3" x="-2.99998" y="-32" width="420" height="800"/></g><path class="cls-4" d="M44.87355,240.03057c.31766,6.66976,4.36707,8.81362,10.71943,8.81361,4.44642,0,9.05179-1.588,9.05179-5.79627,0-5.08173-8.105-5.93417-16.27752-8.2579-8.02537-2.2819-16.59491-5.87573-16.59492-16.35672,0-12.3868,12.46614-17.23023,23.106-17.23024,11.19552,0,22.709,5.55808,22.709,18.2624H62.81842c.23831-5.08173-4.68472-6.82858-9.13114-6.82858-3.17605,0-7.14637,1.11168-7.14637,4.84343,0,4.44668,8.17843,5.16121,16.43647,7.46389,8.17818,2.30255,16.43622,6.11391,16.43623,16.35672,0,14.37183-12.22809,18.97721-24.69424,18.97722-12.94251,0-24.61465-5.717-24.61466-20.24756Z"/><path d="M54.71932,261.07218c-7.11923,0-13.21312-1.66775-17.62284-4.82312-5.09349-3.64465-7.78582-9.25288-7.78583-16.21845a.79406.79406,0,0,1,.794-.794H44.8735a.794.794,0,0,1,.79311.75627c.26894,5.64765,3.23757,8.05734,9.92632,8.05734,3.992,0,8.25778-1.314,8.25778-5.00226,0-3.50443-4.90572-4.73473-11.11656-6.29239-1.49046-.37387-3.03183-.76041-4.58406-1.20174-8.4913-2.41447-17.17181-6.33658-17.17181-17.12049a15.78626,15.78626,0,0,1,7.93843-13.9349,31.09827,31.09827,0,0,1,15.96154-4.08935c11.69863,0,23.503,5.8924,23.503,19.05641a.79406.79406,0,0,1-.794.794H62.81838a.79388.79388,0,0,1-.79311-.83123,4.79718,4.79718,0,0,0-1.27269-3.68574c-1.4018-1.469-3.977-2.31161-7.06535-2.31161-1.06075,0-6.35235.19528-6.35235,4.04942,0,2.85619,4.89072,4.01865,10.55375,5.36462,1.7201.40889,3.49862.83161,5.30195,1.33446,3.56969,1.00505,8.10916,2.52083,11.57392,5.35066A14.50178,14.50178,0,0,1,80.20757,241.301C80.20758,253.86584,70.91748,261.07217,54.71932,261.07218ZM30.9107,240.82462c.18817,6.13809,2.5777,10.89,7.10993,14.133,4.13859,2.96126,9.91288,4.52654,16.69869,4.52654,6.78542,0,12.52379-1.37428,16.59452-3.97434,4.84769-3.09631,7.30571-7.8768,7.30571-14.20887,0-9.80574-8.016-13.38474-15.85738-15.59243-1.77193-.49406-3.53532-.91317-5.24069-1.31857-6.31811-1.5017-11.77462-2.79868-11.77463-6.90961,0-4.15642,4.10175-5.63744,7.94038-5.63744,3.5202,0,6.51429,1.02185,8.21423,2.80333a6.15813,6.15813,0,0,1,1.70718,4.02525H76.77705c-.47287-11.51-11.23288-16.67438-21.8988-16.67438-11.10584,0-22.312,5.08226-22.312,16.43623,0,9.70119,7.69859,13.22746,16.018,15.593,1.52845.43461,3.05741.818,4.53611,1.18895,6.60979,1.65768,12.3183,3.08932,12.31831,7.83272a5.691,5.691,0,0,1-3.27492,5.17465,14.1562,14.1562,0,0,1-6.57089,1.41563c-7.246,0-10.90707-2.80566-11.46006-8.81361Z"/><path class="cls-4" d="M101.37508,237.96616h12.86315l-6.273-19.85056h-.1587Zm-.953-35.57212h15.00715l21.20032,56.693H121.2254l-3.49371-10.16346-19.771,0-3.573,10.16346H79.22183Z"/><path d="M136.6295,259.88112H121.22535a.79382.79382,0,0,1-.75085-.53593l-3.30942-9.62753H98.5231l-3.38643,9.63283a.79383.79383,0,0,1-.749.53063H79.22179A.79407.79407,0,0,1,78.478,258.809L99.67843,202.116a.79352.79352,0,0,1,.74361-.51591h15.00715a.79352.79352,0,0,1,.74361.5159l21.20031,56.693a.79393.79393,0,0,1-.74361,1.07212Zm-14.83759-1.588h13.69284l-20.60636-55.105H100.97284l-20.60643,55.105H93.8252l3.38644-9.63283a.79381.79381,0,0,1,.749-.53063h19.771a.79382.79382,0,0,1,.75085.53593Zm-7.55372-19.53291H101.375a.7938.7938,0,0,1-.75524-1.03878l6.43144-19.85057a.79366.79366,0,0,1,.75524-.54924h.1587a.794.794,0,0,1,.757.5548l6.273,19.85056a.794.794,0,0,1-.757,1.03323Zm-11.77114-1.588h10.68738l-5.27714-16.69932Z"/><path class="cls-4" d="M176.32163,241.14216c0,12.78368-6.5904,19.13591-19.85056,19.13592-15.00714,0-19.85057-8.65477-19.85058-21.27988v-2.46139H150.5157v5.24056c0,3.73189,1.98529,5.79627,5.71705,5.79626,3.41435,0,5.32-1.90555,5.32-7.38429l0-37.79532H176.3216Z"/><path d="M156.471,261.07213c-13.8916,0-20.64458-7.22041-20.64459-22.07389v-2.46139a.794.794,0,0,1,.794-.794h13.89522a.794.794,0,0,1,.794.794v5.24056c0,3.31924,1.65627,5.00225,4.923,5.00225,3.97781,0,4.526-3.16739,4.526-6.59028l0-37.79532a.794.794,0,0,1,.794-.794h14.76884a.794.794,0,0,1,.794.794l0,38.74816C177.1156,254.3667,170.1698,261.07212,156.471,261.07213Zm-19.05657-23.74127v1.66737c0,13.97638,6.05538,20.48588,19.05656,20.48588,12.82309,0,19.05655-5.99969,19.05655-18.34191l0-37.95415H162.34674v37.00131c0,5.57954-1.94289,8.1783-6.114,8.1783-4.13781,0-6.51106-2.40206-6.51106-6.59027v-4.44655Z"/><path class="cls-4" d="M199.958,237.9661h12.86315l-6.27276-19.85056h-.1587Zm-.95274-35.57212h15.00689l21.20032,56.693H219.80855l-3.49372-10.16346-19.77121,0-3.573,10.16346H177.80472Z"/><path d="M235.21239,259.88107H219.8085a.79382.79382,0,0,1-.75085-.53593l-3.30942-9.62753H197.106l-3.38643,9.63283a.79383.79383,0,0,1-.749.53063H177.80468a.79393.79393,0,0,1-.74362-1.07212l21.20052-56.69306a.79376.79376,0,0,1,.74361-.51591h15.00689a.79352.79352,0,0,1,.74361.5159L235.956,258.809a.79393.79393,0,0,1-.74361,1.07212Zm-14.83733-1.588h13.69258l-20.60636-55.105H199.556l-20.60656,55.105h13.45866l3.38644-9.63283a.79381.79381,0,0,1,.749-.53063h19.77122a.79382.79382,0,0,1,.75085.53593Zm-7.554-19.5329H199.95792a.7938.7938,0,0,1-.75524-1.03878l6.43169-19.85057a.79368.79368,0,0,1,.75525-.54924h.1587a.794.794,0,0,1,.75705.5548l6.27276,19.85056a.794.794,0,0,1-.757,1.03323Zm-11.77113-1.588h10.68763l-5.27714-16.69932Z"/><path class="cls-4" d="M288.3712,259.087h-9.52814l-.87337-6.1934c-3.81136,5.47874-10.71942,7.38442-15.80115,7.38443-17.23022,0-28.26706-13.10145-28.26707-29.53766s11.03681-29.53742,28.267-29.53743c11.75149,0,24.37634,6.19325,25.647,20.4856H273.04664c-.556-4.84342-5.16109-7.78142-11.19579-7.78141-9.52814,0-13.18054,8.33726-13.18054,16.83322s3.65242,16.83322,13.18056,16.83321c7.30507,0,12.14849-3.41423,13.02211-8.57544H264.55056V228.04065l23.82063,0Z"/><path d="M262.16849,261.07208c-8.51159,0-15.835-3.06413-21.17858-8.86117a33.182,33.182,0,0,1,0-42.94089c5.34356-5.79692,12.667-8.861,21.17857-8.86106,12.22086,0,25.1352,6.55809,26.43788,21.20932a.79412.79412,0,0,1-.79091.86432H273.0466a.79407.79407,0,0,1-.78885-.70341c-.49341-4.29974-4.5785-7.078-10.40694-7.078a10.76191,10.76191,0,0,0-9.50333,4.87806,23.04475,23.04475,0,0,0,0,22.32242,10.76212,10.76212,0,0,0,9.50334,4.87793c6.287,0,10.79593-2.65163,12.03011-6.98742h-9.33042a.794.794,0,0,1-.794-.794V228.0407a.794.794,0,0,1,.794-.794h23.82063a.794.794,0,0,1,.794.794l0,31.04635a.794.794,0,0,1-.794.794H278.843a.794.794,0,0,1-.78626-.68313l-.6149-4.36035C273.35186,259.40121,267.02794,261.07207,262.16849,261.07208Zm0-59.07509c-8.05643,0-14.97613,2.88709-20.01107,8.34929a31.60053,31.60053,0,0,0,0,40.78838c5.035,5.46219,11.95465,8.3494,20.01108,8.34939,4.95482,0,11.53644-1.85037,15.1493-7.04389a.79406.79406,0,0,1,1.43811.34259l.777,5.51027h8.04428V228.8347H265.34452v9.36945h9.52841a.79391.79391,0,0,1,.78289.92648c-.96434,5.69766-6.25413,9.237-13.805,9.237a12.42032,12.42032,0,0,1-10.82333-5.58315c-2.60458-3.89459-3.15125-8.69924-3.15125-12.04407s.54666-8.14948,3.15123-12.04395a12.42016,12.42016,0,0,1,10.82333-5.58329c6.37924,0,10.95334,3.02949,11.87633,7.78142H286.932a19.76957,19.76957,0,0,0-8.46379-14.157A28.68029,28.68029,0,0,0,262.16846,201.997Z"/><path class="cls-4" d="M314.09673,237.966h12.86315l-6.27276-19.85056h-.1587Zm-.95274-35.57211h15.00689l21.20032,56.693H333.94731l-3.49371-10.16346-19.77122,0L307.10933,259.087H291.94348Z"/><path d="M349.35115,259.881H333.94726a.79382.79382,0,0,1-.75085-.53593l-3.30942-9.62753H311.24476l-3.38644,9.63283a.79382.79382,0,0,1-.749.53064H291.94344a.79392.79392,0,0,1-.74361-1.07212l21.20051-56.69306a.79376.79376,0,0,1,.74361-.5159h15.00689a.79352.79352,0,0,1,.74361.5159l21.20031,56.693a.79393.79393,0,0,1-.74361,1.07212Zm-14.83733-1.588H348.2064L327.6,203.188H313.69475l-20.60656,55.105h13.45866l3.38644-9.63283a.79383.79383,0,0,1,.749-.53063h19.77122a.79382.79382,0,0,1,.75085.53593Zm-7.554-19.53291H314.09668a.7938.7938,0,0,1-.75524-1.03878l6.4317-19.85058a.79367.79367,0,0,1,.75524-.54924h.1587a.794.794,0,0,1,.757.5548l6.27276,19.85056a.794.794,0,0,1-.757,1.03323Zm-11.77113-1.588h10.68763l-5.27714-16.69933Z"/><path class="cls-4" d="M73.95145,299.89837a18.18475,18.18475,0,0,0-9.90965-3.30321c-4.91244,0-8.46972,2.62551-10.58709,7.792H72.68082l-3.13365,7.53795H52.09957a2.88779,2.88779,0,0,0-.08452.847V314.805a2.88649,2.88649,0,0,0,.08452.84687H68.10725l-3.13366,7.53808H53.62428q3.17606,7.6226,11.17976,7.62259c3.55729,0,7.45343-1.43979,11.77294-4.23487v15.7536a33.46579,33.46579,0,0,1-13.97509,2.62565c-6.77572,0-12.573-1.9021-17.278-5.84407-4.69687-3.93514-7.8768-9.31658-9.65532-15.92289H29.06211l3.13391-7.53808h2.37144a2.34242,2.34242,0,0,1-.08478-.76222v-2.1175a2.60939,2.60939,0,0,1,.08478-.847H28.8928l3.13366-7.53795h3.64207a29.87766,29.87766,0,0,1,9.82485-16.00767,26.62422,26.62422,0,0,1,17.44734-6.01339c5.33606,0,11.01072,1.60921,17.024,4.743Z"/><path d="M62.60185,345.75094c-7.02786,0-13.01255-2.02858-17.788-6.0294A31.09492,31.09492,0,0,1,35.06457,323.984H29.06205a.794.794,0,0,1-.73314-1.09888l3.13391-7.53808a.79415.79415,0,0,1,.73315-.48915h1.49265v-2.13869H28.89275a.79393.79393,0,0,1-.73314-1.09875l3.13365-7.53795a.79387.79387,0,0,1,.73315-.48928h3.0344a30.55446,30.55446,0,0,1,9.92851-15.82727,27.44,27.44,0,0,1,17.95135-6.19379c5.38633,0,11.23739,1.626,17.39086,4.83294a.7939.7939,0,0,1,.35165,1.04189l-6.01325,12.78923a.79387.79387,0,0,1-1.15121.32787,17.49575,17.49575,0,0,0-9.477-3.17488c-4.19558,0-7.34009,2.08609-9.361,6.204H72.68077a.79392.79392,0,0,1,.73314,1.09875L70.28026,312.23a.79414.79414,0,0,1-.73315.48915H52.809v2.13869H68.10719a.79393.79393,0,0,1,.73315,1.09875l-3.13366,7.53808a.79407.79407,0,0,1-.73314.48928H54.86177a10.28047,10.28047,0,0,0,9.94221,6.03457c3.36034,0,7.07025-1.34352,11.34156-4.10744a.794.794,0,0,1,1.22539.66658v15.7536a.794.794,0,0,1-.46421.72229A33.97767,33.97767,0,0,1,62.60185,345.75094ZM30.252,322.396h5.41644a.794.794,0,0,1,.76675.58762c1.76378,6.55138,4.92588,11.77333,9.39853,15.52059,4.4817,3.75488,10.12327,5.65875,16.76809,5.65875a32.95831,32.95831,0,0,0,13.18107-2.34805V328.00842c-4.0352,2.41926-7.63746,3.59813-10.97893,3.59814-5.66212,0-9.67017-2.729-11.91264-8.11123a.794.794,0,0,1,.73288-1.09939H64.44368l2.47353-5.95005H52.09952a.794.794,0,0,1-.75343-.54343,3.51046,3.51046,0,0,1-.1251-1.09745v-2.03285a3.5107,3.5107,0,0,1,.12509-1.09745.79394.79394,0,0,1,.75344-.54356H69.01725l2.47354-5.94992H53.45466A.794.794,0,0,1,52.72,304.0861c2.25293-5.49748,6.06222-8.28492,11.32178-8.28493a18.54326,18.54326,0,0,1,9.57221,2.94872l5.30556-11.284c-5.6744-2.85774-11.04665-4.30567-15.97885-4.30567a25.89261,25.89261,0,0,0-16.94216,5.83194,29.19659,29.19659,0,0,0-9.562,15.59672.7941.7941,0,0,1-.768.5924H32.55626l-2.47353,5.94992H34.5674a.7939.7939,0,0,1,.75318,1.04524,2.06791,2.06791,0,0,0-.04394.59577v2.11749a1.74764,1.74764,0,0,0,.04394.51086.794.794,0,0,1-.75317,1.04538H32.7257Z"/><path class="cls-4" d="M99.36735,328.16591h6.98716c11.19578-.23806,15.64219-4.60526,15.64219-15.95974,0-10.40164-5.47875-15.32466-15.64221-15.32466H99.36734ZM84.59849,284.17733l24.37634,0c17.38918,0,27.79069,10.56045,27.7907,28.1082,0,18.58007-10.56045,28.58484-27.79067,28.58485l-24.37633,0Z"/><path d="M108.9748,341.66441H84.59847a.794.794,0,0,1-.794-.794l0-56.693a.794.794,0,0,1,.794-.794l24.37633,0c8.74448,0,15.99967,2.666,20.98111,7.70969,4.97447,5.03637,7.60361,12.36457,7.60361,21.19253,0,9.36079-2.57872,16.702-7.66484,21.81971C124.97989,339.05052,117.7459,341.66441,108.9748,341.66441Zm-23.58232-1.588H108.9748c8.4581,0,15.11751-2.38567,19.79345-7.09056,4.77983-4.80943,7.20322-11.774,7.20322-20.70028,0-17.10331-10.09214-27.3142-26.99669-27.31419H85.39245ZM99.3673,328.96a.794.794,0,0,1-.794-.794l0-31.2844a.794.794,0,0,1,.794-.794h6.98716c5.32676,0,9.42528,1.33989,12.18183,3.98259,2.823,2.70616,4.25438,6.78943,4.25439,12.13609,0,11.65172-4.75709,16.50561-16.41941,16.75362Zm.794-1.588h6.19314c10.81946-.23017,14.84819-4.34058,14.84818-15.16572,0-9.7777-4.85687-14.53066-14.84819-14.53065H100.1613Z"/><path class="cls-4" d="M157.73424,319.7494h12.86315l-6.273-19.85056h-.1587Zm-.953-35.57212h15.00714l21.20032,56.693H177.58456l-3.49371-10.16346-19.771,0-3.573,10.16346H135.581Z"/><path d="M192.98865,341.66437H177.5845a.79383.79383,0,0,1-.75085-.53594l-3.30942-9.62752h-18.642l-3.38644,9.63282a.79382.79382,0,0,1-.749.53064H135.58094a.79394.79394,0,0,1-.74361-1.07213l21.20025-56.69306a.79352.79352,0,0,1,.74361-.5159h15.00715a.79351.79351,0,0,1,.74361.5159l21.20031,56.693a.79393.79393,0,0,1-.74361,1.07213Zm-14.83759-1.588H191.8439l-20.60636-55.105H157.332l-20.6063,55.105h13.45867l3.38643-9.63283a.79383.79383,0,0,1,.749-.53063h19.771a.79382.79382,0,0,1,.75085.53593Zm-7.55372-19.53291H157.73418a.7938.7938,0,0,1-.75524-1.03878l6.43144-19.85057a.79367.79367,0,0,1,.75524-.54925h.1587a.794.794,0,0,1,.757.5548l6.273,19.85057a.794.794,0,0,1-.757,1.03322Zm-11.77113-1.588h10.68737l-5.27714-16.69933Z"/><path class="cls-4" d="M207.35949,321.81375c.31767,6.66975,4.36708,8.81361,10.71918,8.81361,4.44667,0,9.05179-1.588,9.05179-5.79627,0-5.08173-8.10478-5.93421-16.27726-8.2579-8.02563-2.28194-16.59517-5.87574-16.59518-16.35672,0-12.3868,12.46614-17.23024,23.106-17.23024,11.19578,0,22.709,5.55807,22.709,18.2624H225.30437c.238-5.08173-4.68473-6.82858-9.13141-6.82858-3.176,0-7.14611,1.11167-7.1461,4.84343,0,4.44667,8.17843,5.1612,16.43621,7.46388,8.17843,2.30256,16.43622,6.11392,16.43622,16.35673,0,14.37183-12.22783,18.97721-24.694,18.97722-12.9425,0-24.61464-5.717-24.61465-20.24756Z"/><path d="M217.20526,342.85537c-7.11923,0-13.21313-1.66775-17.62284-4.82312-5.09362-3.64465-7.78583-9.25288-7.78583-16.21845a.794.794,0,0,1,.794-.794h14.76884a.79411.79411,0,0,1,.79324.75628c.26881,5.64764,3.23731,8.05733,9.92593,8.05733,3.992,0,8.25778-1.31405,8.25778-5.00226,0-3.50456-4.906-4.735-11.117-6.29264-1.49033-.37375-3.03131-.76028-4.58341-1.20149-8.49144-2.41447-17.17207-6.33671-17.17208-17.12049a15.78667,15.78667,0,0,1,7.93831-13.9349,31.09907,31.09907,0,0,1,15.96166-4.08935c11.69876,0,23.503,5.8924,23.503,19.05641a.794.794,0,0,1-.794.794H225.30432a.79427.79427,0,0,1-.79324-.8311,4.79735,4.79735,0,0,0-1.2727-3.68587c-1.40193-1.46913-3.977-2.31161-7.06547-2.3116-1.06075,0-6.3521.19527-6.35209,4.04941,0,2.8562,4.89072,4.01865,10.55349,5.36462,1.7201.40876,3.49861.83162,5.30194,1.33446,3.5697,1.00492,8.10917,2.52083,11.57392,5.35066a14.50176,14.50176,0,0,1,5.44308,11.77087C242.69326,335.649,233.40316,342.85537,217.20526,342.85537Zm-23.8085-20.24756c.18791,6.13809,2.57745,10.89,7.10968,14.133,4.13858,2.96127,9.913,4.52654,16.69881,4.52654,6.78555,0,12.52379-1.37428,16.5944-3.97434,4.84755-3.09631,7.30558-7.8768,7.30557-14.20887,0-9.80587-8.01612-13.38474-15.85751-15.59243-1.77179-.49406-3.53532-.9133-5.24068-1.31857-6.31773-1.5017-11.77424-2.79868-11.77424-6.90961,0-4.15642,4.10162-5.63744,7.94012-5.63744,3.52033,0,6.51416,1.02172,8.21436,2.80334a6.15809,6.15809,0,0,1,1.70718,4.02524H239.2626c-.47275-11.51-11.23275-16.67438-21.89868-16.67438-11.10583,0-22.31195,5.08226-22.31194,16.43623,0,9.70106,7.69872,13.22746,16.01828,15.59295,1.52831.43448,3.05689.81792,4.53533,1.18869,6.61005,1.65781,12.31882,3.08946,12.31882,7.833a5.6909,5.6909,0,0,1-3.27478,5.17465,14.15679,14.15679,0,0,1-6.571,1.41563c-7.24588,0-10.90681-2.80566-11.45994-8.8136Z"/><rect class="cls-4" x="248.57576" y="284.17722" width="14.76884" height="56.69305"/><path d="M263.34456,341.66433H248.57572a.794.794,0,0,1-.794-.794l0-56.69305a.794.794,0,0,1,.794-.794h14.76884a.794.794,0,0,1,.794.794l0,56.693A.794.794,0,0,1,263.34456,341.66433Zm-13.97483-1.588h13.18082l0-55.105H249.36971Z"/><path class="cls-3" d="M53.81259,232.26974c.31766,6.66975,4.36707,8.81361,10.71943,8.81361,4.44642,0,9.05179-1.588,9.05179-5.79627,0-5.08173-8.105-5.93417-16.27752-8.2579-8.02537-2.2819-16.59491-5.87574-16.59492-16.35672,0-12.3868,12.46614-17.23024,23.106-17.23024,11.19552,0,22.709,5.55807,22.709,18.2624H71.75746c.23831-5.08173-4.68473-6.82858-9.13114-6.82858-3.176,0-7.14637,1.11167-7.14637,4.84343,0,4.44667,8.17843,5.1612,16.43647,7.46388,8.17818,2.30256,16.43622,6.11391,16.43622,16.35673,0,14.37183-12.22808,18.97721-24.69423,18.97722-12.94251,0-24.61465-5.717-24.61466-20.24756Z"/><path d="M63.65842,253.3113c-7.11923,0-13.21313-1.66775-17.62284-4.82312-5.09349-3.64465-7.78583-9.25288-7.78583-16.21845a.794.794,0,0,1,.794-.794H53.8126a.794.794,0,0,1,.79311.75627c.26894,5.64765,3.23757,8.05734,9.92632,8.05734,3.992,0,8.25778-1.31406,8.25778-5.00226,0-3.50443-4.90572-4.73473-11.11657-6.29239-1.49045-.37387-3.03182-.76041-4.584-1.20174-8.49131-2.41434-17.17181-6.33645-17.17182-17.12049a15.78627,15.78627,0,0,1,7.93844-13.9349,31.09823,31.09823,0,0,1,15.96153-4.08935c11.69863,0,23.503,5.8924,23.503,19.05641a.794.794,0,0,1-.794.794H71.75748a.79386.79386,0,0,1-.79311-.83123,4.79726,4.79726,0,0,0-1.2727-3.68575c-1.4018-1.469-3.977-2.3116-7.06534-2.3116-1.06075,0-6.35236.19528-6.35235,4.04942,0,2.85619,4.89072,4.01865,10.55375,5.36462,1.7201.40889,3.49861.83161,5.30194,1.33446,3.5697,1.005,8.10916,2.52083,11.57392,5.35066a14.50176,14.50176,0,0,1,5.44308,11.77087C89.14667,246.105,79.85658,253.31129,63.65842,253.3113ZM39.8498,233.06374c.18816,6.13809,2.5777,10.89,7.10993,14.133,4.13858,2.96126,9.91288,4.52654,16.69869,4.52654,6.78542,0,12.52378-1.37428,16.59452-3.97434,4.84768-3.09631,7.30571-7.8768,7.3057-14.20887,0-9.80574-8.016-13.38474-15.85738-15.59243-1.77192-.49406-3.53532-.91317-5.24069-1.31857-6.31811-1.5017-11.77462-2.79868-11.77462-6.90961,0-4.15642,4.10175-5.63744,7.94038-5.63744,3.5202,0,6.51429,1.02185,8.21423,2.80333a6.15818,6.15818,0,0,1,1.70718,4.02525H85.71615c-.47288-11.51-11.23288-16.67438-21.89881-16.67438-11.10583,0-22.312,5.08226-22.31194,16.43623,0,9.70132,7.69859,13.22746,16.018,15.593,1.52844.43461,3.05741.818,4.5361,1.189,6.60979,1.65767,12.31831,3.08932,12.31831,7.83272a5.691,5.691,0,0,1-3.27491,5.17465,14.15623,14.15623,0,0,1-6.57089,1.41563c-7.246,0-10.90707-2.80566-11.46007-8.81361Z"/><path class="cls-3" d="M110.31411,230.20532h12.86316l-6.273-19.85057h-.1587Zm-.953-35.57211h15.00715l21.20032,56.693H130.16444l-3.49372-10.16346h-19.771l-3.573,10.16346H88.16087Z"/><path d="M145.5686,252.12024H130.16445a.79382.79382,0,0,1-.75085-.53593l-3.30943-9.62753h-18.642l-3.38644,9.63283a.7938.7938,0,0,1-.749.53063H88.16088a.79393.79393,0,0,1-.74361-1.07212l21.20026-56.69306a.79349.79349,0,0,1,.74361-.51591h15.00714a.7935.7935,0,0,1,.74361.5159l21.20032,56.693a.79393.79393,0,0,1-.74361,1.07212Zm-14.83759-1.588h13.69283l-20.60635-55.105H109.91193l-20.6063,55.105H102.7643l3.38644-9.63283a.7938.7938,0,0,1,.749-.53064h19.771a.79382.79382,0,0,1,.75085.53594Zm-7.55373-19.5329H110.31413a.7938.7938,0,0,1-.75525-1.03878L115.99032,210.11a.79367.79367,0,0,1,.75524-.54924h.1587a.794.794,0,0,1,.75706.5548l6.273,19.85056a.794.794,0,0,1-.75705,1.03323Zm-11.77113-1.588h10.68738L116.81639,212.712Z"/><path class="cls-3" d="M185.26066,233.38133c0,12.78367-6.59039,19.13591-19.85055,19.13592-15.00715,0-19.85057-8.65478-19.85058-21.27989V228.776h13.89521v5.24056c0,3.73188,1.98529,5.79626,5.717,5.79626,3.41436,0,5.32-1.90556,5.32-7.38429l0-37.79533h14.76884Z"/><path d="M165.41012,253.31125c-13.8916,0-20.64458-7.22041-20.64459-22.0739V228.776a.794.794,0,0,1,.794-.794h13.89521a.794.794,0,0,1,.794.794v5.24056c0,3.31924,1.65626,5.00225,4.923,5.00225,3.97782,0,4.526-3.16739,4.526-6.59028l0-37.79533a.794.794,0,0,1,.794-.794h14.76884a.794.794,0,0,1,.794.794l0,38.74816C186.0547,246.60582,179.1089,253.31124,165.41012,253.31125ZM146.35355,229.57v1.66737c0,13.97638,6.05539,20.48588,19.05657,20.48587,12.82309,0,19.05655-5.99968,19.05654-18.3419l0-37.95415H171.28583l0,37.00131c0,5.57954-1.9429,8.1783-6.114,8.1783-4.13781,0-6.51106-2.40206-6.51106-6.59027V229.57Z"/><path class="cls-3" d="M208.897,230.20526h12.86316l-6.27276-19.85057h-.1587Zm-.95273-35.57211h15.00689l21.20032,56.693H228.74759l-3.49372-10.16346H205.48266l-3.57305,10.16346H186.74376Z"/><path d="M244.15149,252.12019H228.7476a.79381.79381,0,0,1-.75085-.53593l-3.30943-9.62753H206.04509l-3.38644,9.63283a.7938.7938,0,0,1-.749.53063H186.74377a.79394.79394,0,0,1-.74361-1.07212L207.20068,194.355a.79375.79375,0,0,1,.74361-.5159h15.00688a.7935.7935,0,0,1,.74361.5159l21.20032,56.693a.79393.79393,0,0,1-.74361,1.07212Zm-14.83733-1.588h13.69257l-20.60635-55.105h-13.9053l-20.60656,55.105h13.45867l3.38644-9.63283a.7938.7938,0,0,1,.749-.53064h19.77121a.79383.79383,0,0,1,.75085.53594Zm-7.554-19.5329H208.897a.79382.79382,0,0,1-.75525-1.03878l6.4317-19.85057a.79366.79366,0,0,1,.75524-.54924h.1587a.794.794,0,0,1,.757.5548l6.27276,19.85056a.794.794,0,0,1-.75705,1.03323Zm-11.77113-1.588h10.68764l-5.27715-16.69933Z"/><path class="cls-3" d="M297.31024,251.32615h-9.52815l-.87336-6.1934c-3.81136,5.47874-10.71942,7.38443-15.80115,7.38443-17.23023,0-28.26706-13.10144-28.26707-29.53766s11.03681-29.53742,28.267-29.53743c11.75149,0,24.37634,6.19326,25.647,20.48561H281.98568c-.556-4.84343-5.16109-7.78142-11.19579-7.78142-9.52815,0-13.18055,8.33727-13.18054,16.83323s3.65241,16.83321,13.18056,16.83321c7.30507,0,12.14849-3.41424,13.02211-8.57545H273.4896V220.27981h23.82063Z"/><path d="M271.10759,253.3112c-8.5116,0-15.835-3.06413-21.17858-8.86117a33.182,33.182,0,0,1,0-42.94089c5.34329-5.79692,12.667-8.86105,21.17857-8.86106,12.22086,0,25.13545,6.55809,26.43788,21.20932a.79412.79412,0,0,1-.79091.86432H281.98569a.79407.79407,0,0,1-.78884-.70342c-.49342-4.29973-4.5785-7.078-10.40694-7.078a10.76224,10.76224,0,0,0-9.50334,4.87806,23.04472,23.04472,0,0,0,0,22.32242,10.76207,10.76207,0,0,0,9.50333,4.87792c6.287,0,10.79593-2.65162,12.03011-6.98741h-9.33042a.794.794,0,0,1-.794-.794V220.27982a.794.794,0,0,1,.794-.794h23.82063a.794.794,0,0,1,.794.794l0,31.04635a.794.794,0,0,1-.794.794H287.7821a.794.794,0,0,1-.78625-.68313l-.6149-4.36035C282.291,251.64033,275.967,253.31119,271.10759,253.3112Zm0-59.07509c-8.05644,0-14.97613,2.88709-20.01107,8.34929a31.60052,31.60052,0,0,0,0,40.78837c5.035,5.4622,11.95464,8.34941,20.01108,8.3494,4.95482,0,11.53644-1.85037,15.14929-7.04389a.79407.79407,0,0,1,1.43812.34259l.77695,5.51027h8.04429V221.07382H274.28362v9.36945h9.5284a.79427.79427,0,0,1,.7829.92648c-.96434,5.69766-6.25413,9.237-13.805,9.237a12.42034,12.42034,0,0,1-10.82333-5.58315c-2.60458-3.89459-3.15124-8.69924-3.15124-12.04407s.54665-8.14949,3.15123-12.04395a12.42014,12.42014,0,0,1,10.82333-5.58329c6.37923,0,10.95334,3.02949,11.87633,7.78142h13.20485a19.76959,19.76959,0,0,0-8.46379-14.157A28.68029,28.68029,0,0,0,271.10756,194.23611Z"/><path class="cls-3" d="M323.03577,230.2052h12.86315l-6.27276-19.85057h-.1587Zm-.95274-35.57212h15.00689l21.20032,56.693H342.88635l-3.49372-10.16346H319.62142l-3.57305,10.16347H300.88252Z"/><path d="M358.29025,252.12013H342.88636a.79382.79382,0,0,1-.75085-.53593l-3.30943-9.62753H320.18385l-3.38643,9.63283a.79381.79381,0,0,1-.749.53063H300.88253a.79393.79393,0,0,1-.74361-1.07212L321.33944,194.355a.79378.79378,0,0,1,.74361-.51591h15.00688a.7935.7935,0,0,1,.74361.5159l21.20032,56.693a.79393.79393,0,0,1-.74361,1.07212Zm-14.83733-1.588h13.69257l-20.60635-55.105h-13.9053l-20.60655,55.105H315.486l3.38644-9.63283a.79382.79382,0,0,1,.749-.53063h19.77121a.79381.79381,0,0,1,.75085.53593Zm-7.554-19.53291H323.03578a.79382.79382,0,0,1-.75524-1.03879l6.43169-19.85057a.79367.79367,0,0,1,.75524-.54924h.1587a.794.794,0,0,1,.757.5548L336.656,229.966a.794.794,0,0,1-.757,1.03323Zm-11.77113-1.588h10.68764l-5.27714-16.69932Z"/><path class="cls-3" d="M82.89048,292.13753a18.18489,18.18489,0,0,0-9.90964-3.30321c-4.91244,0-8.46973,2.62552-10.58709,7.792H81.61986l-3.13366,7.53795H61.03861a2.88773,2.88773,0,0,0-.08452.847v2.03284a2.88642,2.88642,0,0,0,.08452.84687H77.04628l-3.13365,7.53808H62.56332q3.17605,7.6226,11.17976,7.62259c3.55729,0,7.45343-1.4398,11.77293-4.23487v15.7536a33.46593,33.46593,0,0,1-13.97508,2.62565c-6.77572,0-12.573-1.9021-17.278-5.84407-4.69687-3.93515-7.87681-9.31659-9.65533-15.92289H38.00114l3.13392-7.53808H43.5065a2.34236,2.34236,0,0,1-.08478-.76222v-2.11749a2.60933,2.60933,0,0,1,.08478-.847H37.83184l3.13366-7.538h3.64206a29.87766,29.87766,0,0,1,9.82486-16.00768,26.62433,26.62433,0,0,1,17.44734-6.01339c5.33606,0,11.01071,1.60922,17.024,4.743Z"/><path d="M71.54094,337.99005c-7.028,0-13.01268-2.02857-17.788-6.02939a31.09492,31.09492,0,0,1-9.74928-15.73757H38.00115a.794.794,0,0,1-.73315-1.09888l3.13392-7.53808a.79414.79414,0,0,1,.73314-.48915h1.49265V304.9583H37.83185a.79392.79392,0,0,1-.73315-1.09874l3.13366-7.53795a.79386.79386,0,0,1,.73314-.48928h3.03441a30.5544,30.5544,0,0,1,9.92851-15.82727,27.44008,27.44008,0,0,1,17.95134-6.1938c5.38634,0,11.2374,1.626,17.391,4.83295a.794.794,0,0,1,.35151,1.04188L83.609,292.47533a.79387.79387,0,0,1-1.15121.32787,17.4957,17.4957,0,0,0-9.477-3.17488c-4.19557,0-7.34009,2.08609-9.361,6.204H81.61987a.79392.79392,0,0,1,.73314,1.09874l-3.13366,7.53808a.79413.79413,0,0,1-.73314.48915H61.74811V307.097H77.04629a.79393.79393,0,0,1,.73314,1.09875l-3.13365,7.53808a.79407.79407,0,0,1-.73315.48928H63.80086a10.2805,10.2805,0,0,0,9.94222,6.03457c3.36034,0,7.07025-1.34352,11.34156-4.10744a.794.794,0,0,1,1.22539.66658v15.7536a.794.794,0,0,1-.46421.72229A33.97757,33.97757,0,0,1,71.54094,337.99005Zm-32.34981-23.355h5.41645a.794.794,0,0,1,.76674.58762c1.76379,6.55138,4.92588,11.77333,9.39854,15.52059,4.48157,3.75488,10.12314,5.65875,16.76808,5.65875A32.95809,32.95809,0,0,0,84.722,334.054V320.24754c-4.0352,2.41926-7.63746,3.59813-10.97893,3.59813-5.66212,0-9.67018-2.729-11.91264-8.11122a.794.794,0,0,1,.73288-1.09939H73.38277l2.47353-5.95H61.03862a.794.794,0,0,1-.75344-.54343,3.51073,3.51073,0,0,1-.12509-1.09745v-2.03285a3.51043,3.51043,0,0,1,.1251-1.09745.79393.79393,0,0,1,.75343-.54356H77.95635l2.47353-5.94993H62.39376a.794.794,0,0,1-.7347-1.09512c2.25293-5.49748,6.06223-8.28493,11.32178-8.28493a18.54332,18.54332,0,0,1,9.57222,2.94872l5.30569-11.284c-5.67453-2.85774-11.04678-4.30567-15.979-4.30567a25.8926,25.8926,0,0,0-16.94215,5.83194,29.19656,29.19656,0,0,0-9.562,15.59671.79411.79411,0,0,1-.768.59241H41.49536l-2.47353,5.94993H43.5065a.7939.7939,0,0,1,.75318,1.04524,2.06787,2.06787,0,0,0-.04394.59577v2.11749a1.74768,1.74768,0,0,0,.04394.51086.794.794,0,0,1-.75318,1.04538H41.66479Z"/><path class="cls-3" d="M108.30639,320.40508h6.98716c11.19578-.23805,15.64219-4.60525,15.64219-15.95973,0-10.40164-5.47875-15.32467-15.64221-15.32466h-6.98716ZM93.53753,276.41649h24.37633c17.38919,0,27.7907,10.56045,27.79071,28.1082,0,18.58007-10.56045,28.58484-27.79067,28.58485H93.53756Z"/><path d="M117.9139,333.90353H93.53757a.794.794,0,0,1-.794-.794l0-56.69305a.794.794,0,0,1,.794-.794l24.37633,0c8.74448,0,15.99966,2.666,20.98111,7.70969,4.97447,5.03637,7.60361,12.36457,7.60361,21.19253,0,9.36079-2.57872,16.702-7.66484,21.81971C133.919,331.28964,126.685,333.90352,117.9139,333.90353Zm-23.58232-1.588,23.58232,0c8.45809,0,15.11751-2.38566,19.79344-7.09055,4.77984-4.80943,7.20323-11.774,7.20323-20.70028,0-17.10332-10.09214-27.3142-26.9967-27.31419H94.33155Zm13.97482-11.11644a.794.794,0,0,1-.794-.794v-31.2844a.794.794,0,0,1,.794-.794h6.98715c5.32676,0,9.42528,1.33989,12.18184,3.98259,2.823,2.70616,4.25438,6.78943,4.25438,12.13609,0,11.65172-4.75708,16.50561-16.4194,16.75361Zm.794-1.588h6.19314c10.81945-.23017,14.84818-4.34058,14.84818-15.16572,0-9.7777-4.85687-14.53066-14.8482-14.53065h-6.19314Z"/><path class="cls-3" d="M166.67328,311.98856h12.86315l-6.273-19.85057h-.1587Zm-.953-35.57211h15.00715l21.20032,56.693H186.5236L183.02989,322.946h-19.771l-3.573,10.16346H144.52Z"/><path d="M201.92775,333.90349H186.5236a.79382.79382,0,0,1-.75085-.53593L182.46333,323.74h-18.642l-3.38643,9.63283a.79382.79382,0,0,1-.749.53064H144.52a.79394.79394,0,0,1-.74362-1.07213l21.20026-56.69306a.79351.79351,0,0,1,.74361-.5159h15.00715a.79352.79352,0,0,1,.74361.5159l21.20031,56.693a.79394.79394,0,0,1-.74361,1.07213Zm-14.83759-1.588H200.783l-20.60636-55.105H166.27109l-20.6063,55.105h13.45866l3.38644-9.63283a.79383.79383,0,0,1,.749-.53063h19.771a.79382.79382,0,0,1,.75085.53593Zm-7.55372-19.53291H166.67328a.7938.7938,0,0,1-.75524-1.03878l6.43144-19.85057a.79367.79367,0,0,1,.75524-.54925h.1587a.794.794,0,0,1,.757.5548l6.273,19.85057a.794.794,0,0,1-.757,1.03322Zm-11.77114-1.588h10.68738l-5.27714-16.69933Z"/><path class="cls-3" d="M216.29853,314.05291c.31766,6.66976,4.36708,8.81362,10.71918,8.81361,4.44667,0,9.05179-1.588,9.05178-5.79627,0-5.08173-8.10477-5.9342-16.27725-8.2579-8.02563-2.28193-16.59518-5.87573-16.59518-16.35672,0-12.3868,12.46614-17.23023,23.106-17.23024,11.19578,0,22.709,5.55808,22.709,18.2624H234.24341c.238-5.08173-4.68473-6.82858-9.13141-6.82858-3.17605,0-7.14611,1.11168-7.14611,4.84343,0,4.44668,8.17844,5.16121,16.43622,7.46389,8.17843,2.30255,16.43621,6.11391,16.43622,16.35672,0,14.37183-12.22783,18.97721-24.694,18.97722-12.9425,0-24.61465-5.717-24.61465-20.24756Z"/><path d="M226.14435,335.09449c-7.11923,0-13.21312-1.66775-17.62284-4.82312-5.09362-3.64465-7.78582-9.25288-7.78582-16.21845a.794.794,0,0,1,.794-.794h14.76884a.79428.79428,0,0,1,.79323.75627c.26881,5.64765,3.23731,8.05734,9.92594,8.05734,3.992,0,8.25778-1.31405,8.25778-5.00226,0-3.50443-4.90572-4.73486-11.11644-6.29251-1.49058-.37375-3.03182-.76029-4.58392-1.20162-8.49144-2.41434-17.17207-6.33645-17.17208-17.12049a15.78667,15.78667,0,0,1,7.93831-13.9349,31.09907,31.09907,0,0,1,15.96166-4.08935c11.69876,0,23.503,5.8924,23.503,19.05641a.794.794,0,0,1-.794.794H234.24341a.79427.79427,0,0,1-.79323-.8311,4.79735,4.79735,0,0,0-1.2727-3.68587c-1.40193-1.46913-3.977-2.31161-7.06547-2.31161-1.06075,0-6.3521.19528-6.3521,4.04942,0,2.85619,4.89073,4.01865,10.55349,5.36462,1.72011.40876,3.49862.83161,5.302,1.33446,3.5697,1.00492,8.10916,2.52083,11.57392,5.35066a14.50179,14.50179,0,0,1,5.44308,11.77087C251.63235,327.88815,242.34226,335.09448,226.14435,335.09449Zm-23.80849-20.24756c.18791,6.13809,2.57744,10.89,7.10968,14.133,4.13858,2.96126,9.913,4.52654,16.69881,4.52654,6.78555,0,12.52379-1.37428,16.59439-3.97434,4.84756-3.09631,7.30558-7.8768,7.30558-14.20887,0-9.80587-8.01612-13.38474-15.85751-15.59243-1.77179-.49406-3.53532-.9133-5.24069-1.31857-6.31772-1.5017-11.77423-2.79868-11.77423-6.90961,0-4.15642,4.10162-5.63744,7.94012-5.63744,3.52033,0,6.51416,1.02172,8.21436,2.80333a6.15823,6.15823,0,0,1,1.70718,4.02525h13.16814c-.47274-11.51-11.23275-16.67438-21.89867-16.67438-11.10583,0-22.31195,5.08226-22.31194,16.43623,0,9.70132,7.69872,13.22759,16.01827,15.593,1.52832.43461,3.05742.818,4.53611,1.18895,6.60953,1.65768,12.31805,3.08932,12.31805,7.83272a5.6909,5.6909,0,0,1-3.27478,5.17465,14.15679,14.15679,0,0,1-6.571,1.41563c-7.24588,0-10.90682-2.80566-11.45994-8.81361Z"/><rect class="cls-3" x="257.5148" y="276.41639" width="14.76884" height="56.69305"/><path d="M272.28366,333.90345H257.51482a.794.794,0,0,1-.794-.794l0-56.69306a.794.794,0,0,1,.794-.794h14.76884a.794.794,0,0,1,.794.794l0,56.69305A.794.794,0,0,1,272.28366,333.90345Zm-13.97483-1.588h13.18081l0-55.105H258.3088Z"/><path class="cls-4" d="M62.75163,224.5089c.31766,6.66976,4.36707,8.81362,10.71943,8.81361,4.44642,0,9.05179-1.588,9.05179-5.79627,0-5.08173-8.105-5.93417-16.27752-8.2579-8.02538-2.2819-16.59491-5.87573-16.59492-16.35672,0-12.3868,12.46614-17.23023,23.106-17.23024,11.19552,0,22.709,5.55808,22.709,18.2624H80.6965c.23831-5.08173-4.68473-6.82858-9.13115-6.82858-3.176,0-7.14636,1.11168-7.14636,4.84343,0,4.44668,8.17843,5.16121,16.43647,7.46389,8.17818,2.30255,16.43622,6.11391,16.43622,16.35672,0,14.37183-12.22809,18.97721-24.69424,18.97722-12.9425,0-24.61464-5.717-24.61465-20.24756Z"/><path d="M72.59738,245.55042c-7.11923,0-13.21312-1.66775-17.62283-4.823-5.0935-3.64464-7.78583-9.25287-7.78583-16.21844a.79406.79406,0,0,1,.794-.794l14.76884-.00013a.794.794,0,0,1,.79311.75627c.26893,5.64765,3.23756,8.05734,9.92632,8.05734,3.992,0,8.25778-1.31406,8.25778-5.00226,0-3.50443-4.90572-4.73474-11.11657-6.29239-1.49045-.37387-3.03182-.76041-4.58405-1.20174-8.49131-2.41447-17.17181-6.33658-17.17182-17.12037a15.78625,15.78625,0,0,1,7.93844-13.93489,31.097,31.097,0,0,1,15.96153-4.08948c11.69876,0,23.50311,5.8924,23.50311,19.05641a.794.794,0,0,1-.794.794h-14.769a.79386.79386,0,0,1-.7931-.83123,4.79726,4.79726,0,0,0-1.2727-3.68575c-1.4018-1.469-3.977-2.3116-7.06534-2.3116-1.06075,0-6.35236.19528-6.35236,4.04942,0,2.85619,4.89073,4.01865,10.55375,5.36462,1.72011.40889,3.49862.83161,5.302,1.33446,3.5697,1.00492,8.10929,2.52083,11.57405,5.35066a14.50179,14.50179,0,0,1,5.44308,11.77087C98.08577,238.34407,88.79568,245.55041,72.59738,245.55042ZM48.78876,225.303c.18817,6.13809,2.57771,10.89,7.10994,14.13287,4.13845,2.96126,9.91288,4.52654,16.69868,4.52654,6.78555,0,12.52379-1.37428,16.59452-3.97434,4.84782-3.09631,7.30584-7.8768,7.30584-14.20887,0-9.80574-8.01612-13.38474-15.85751-15.59244-1.77192-.49406-3.53532-.91316-5.24069-1.31856-6.31811-1.5017-11.77462-2.79869-11.77462-6.90961,0-4.15642,4.10175-5.63744,7.94038-5.63744,3.5202,0,6.51416,1.02185,8.21423,2.80333a6.15759,6.15759,0,0,1,1.70718,4.02525h13.1684c-.47274-11.51-11.23288-16.67438-21.8988-16.67438-11.10583,0-22.31195,5.08226-22.31194,16.43635,0,9.70107,7.69859,13.22734,16.018,15.59283,1.52845.43461,3.05742.818,4.53611,1.18895,6.60992,1.65767,12.31831,3.08932,12.31831,7.83272a5.691,5.691,0,0,1-3.27491,5.17465,14.15623,14.15623,0,0,1-6.57089,1.41563c-7.246,0-10.90708-2.80566-11.46007-8.81361Z"/><path class="cls-4" d="M119.25315,222.44449h12.86316l-6.273-19.85056h-.1587Zm-.953-35.57212h15.00715l21.20032,56.693H139.10348L135.60976,233.402l-19.771,0-3.57305,10.16346H97.09991Z"/><path d="M154.50769,244.35936H139.10354a.7938.7938,0,0,1-.75084-.53593l-3.30943-9.62753h-18.642l-3.38644,9.63283a.79383.79383,0,0,1-.749.53063H97.1a.79394.79394,0,0,1-.74361-1.07212l21.20025-56.69307a.79352.79352,0,0,1,.74361-.5159h15.00715a.79352.79352,0,0,1,.74361.51591l21.20031,56.693a.79393.79393,0,0,1-.74361,1.07212Zm-14.83759-1.588h13.69284l-20.60635-55.105H118.851l-20.6063,55.105H111.7034l3.38643-9.63283a.79382.79382,0,0,1,.749-.53064h19.771a.79383.79383,0,0,1,.75085.53594Zm-7.55372-19.5329H119.25322a.7938.7938,0,0,1-.75524-1.03878l6.43144-19.85057a.79366.79366,0,0,1,.75524-.54924h.1587a.794.794,0,0,1,.757.5548l6.273,19.85056a.794.794,0,0,1-.75705,1.03323Zm-11.77113-1.588h10.68737l-5.27714-16.69933Z"/><path class="cls-4" d="M194.1997,225.62049c0,12.78368-6.59039,19.13591-19.85055,19.13592-15.00715,0-19.85058-8.65477-19.85058-21.27988v-2.46139h13.89521v5.24056c0,3.73189,1.9853,5.79627,5.71705,5.79626,3.41436,0,5.32-1.90555,5.32-7.38429l0-37.79532h14.76884Z"/><path d="M174.34922,245.55037c-13.8916,0-20.64459-7.22041-20.6446-22.0739v-2.46138a.794.794,0,0,1,.794-.794h13.89521a.794.794,0,0,1,.794.794v5.24056c0,3.31924,1.65626,5.00225,4.923,5.00225,3.97782,0,4.526-3.1674,4.526-6.59028l0-37.79533a.794.794,0,0,1,.794-.794h14.76883a.794.794,0,0,1,.794.794l0,38.74816C194.99379,238.84493,188.048,245.55036,174.34922,245.55037ZM155.29265,221.8091v1.66737c0,13.97638,6.05539,20.48588,19.05656,20.48587,12.8231,0,19.05656-5.99968,19.05655-18.3419l0-37.95415H180.22493l0,37.00131c0,5.57954-1.9429,8.1783-6.11405,8.1783-4.13781,0-6.51106-2.40206-6.51106-6.59027v-4.44655Z"/><path class="cls-4" d="M217.836,222.44443H230.6992l-6.27276-19.85056h-.1587Zm-.95273-35.57212H231.8902l21.20032,56.693h-15.4039l-3.49371-10.16346-19.77122,0-3.57305,10.16346H195.6828Z"/><path d="M253.09058,244.35931H237.68669a.79383.79383,0,0,1-.75085-.53593l-3.30942-9.62753H214.98419l-3.38644,9.63283a.79383.79383,0,0,1-.749.53063H195.68287a.79394.79394,0,0,1-.74361-1.07212l21.20051-56.69307a.79376.79376,0,0,1,.74361-.5159h15.00689a.79352.79352,0,0,1,.74361.51591l21.20031,56.693a.79393.79393,0,0,1-.74361,1.07212Zm-14.83733-1.588h13.69258l-20.60635-55.105h-13.9053l-20.60656,55.105h13.45867l3.38643-9.63283a.79382.79382,0,0,1,.749-.53064H234.193a.79383.79383,0,0,1,.75085.53594Zm-7.554-19.5329H217.83611a.7938.7938,0,0,1-.75524-1.03878l6.4317-19.85057a.79366.79366,0,0,1,.75524-.54924h.1587a.794.794,0,0,1,.757.5548l6.27276,19.85056a.794.794,0,0,1-.757,1.03323Zm-11.77113-1.588h10.68763L224.33863,204.951Z"/><path class="cls-4" d="M306.24928,243.56531h-9.52815l-.87336-6.1934c-3.81136,5.47874-10.71942,7.38442-15.80115,7.38443-17.23023,0-28.26706-13.10145-28.26707-29.53766s11.03681-29.53742,28.267-29.53743c11.75149,0,24.37634,6.19325,25.647,20.4856H290.92472c-.556-4.84342-5.16109-7.78142-11.19579-7.78141-9.52815,0-13.18055,8.33726-13.18054,16.83322s3.65241,16.83322,13.18056,16.83321c7.30507,0,12.14849-3.41423,13.02211-8.57544H282.42864V212.519l23.82063,0Z"/><path d="M280.04668,245.55031c-8.51159,0-15.835-3.06412-21.17857-8.86116a33.182,33.182,0,0,1,0-42.94089c5.34356-5.79692,12.667-8.861,21.17857-8.86106,12.22087,0,25.1352,6.55809,26.43789,21.20932a.79415.79415,0,0,1-.79091.86432H290.92479a.79406.79406,0,0,1-.78884-.70342c-.49342-4.29973-4.5785-7.078-10.40695-7.078a10.762,10.762,0,0,0-9.50333,4.87807,23.04475,23.04475,0,0,0,0,22.32242,10.76209,10.76209,0,0,0,9.50334,4.87792c6.287,0,10.79593-2.65162,12.03011-6.98741h-9.33042a.794.794,0,0,1-.794-.794V212.51893a.794.794,0,0,1,.794-.794h23.82063a.794.794,0,0,1,.794.794v31.04635a.794.794,0,0,1-.794.794H296.7212a.794.794,0,0,1-.78626-.68313l-.61489-4.36035C291.23006,243.87945,284.90613,245.55031,280.04668,245.55031Zm0-59.07508c-8.05643,0-14.97612,2.88709-20.01107,8.34928a31.60053,31.60053,0,0,0,0,40.78838c5.035,5.4622,11.95465,8.3494,20.01108,8.3494,4.95483,0,11.53644-1.85038,15.1493-7.0439a.79407.79407,0,0,1,1.43811.3426l.777,5.51027h8.04429l0-29.45833-22.2326,0v9.36945h9.52841a.79392.79392,0,0,1,.7829.92648c-.96434,5.69766-6.25414,9.237-13.805,9.237a12.42034,12.42034,0,0,1-10.82333-5.58315c-2.60458-3.89459-3.15124-8.69925-3.15124-12.04407s.54665-8.14949,3.15123-12.04395A12.42013,12.42013,0,0,1,279.729,197.5914c6.37924,0,10.95334,3.02949,11.87633,7.78142h13.20485a19.76958,19.76958,0,0,0-8.46378-14.157A28.6803,28.6803,0,0,0,280.04665,186.47523Z"/><path class="cls-4" d="M331.9748,222.44436H344.838l-6.27276-19.85056h-.1587Zm-.95273-35.57211H346.029l21.20032,56.693h-15.4039l-3.49371-10.16346-19.77122,0L324.9874,243.5653H309.82156Z"/><path d="M367.22934,244.35925H351.82545a.79382.79382,0,0,1-.75085-.53593l-3.30942-9.62753H329.123l-3.38644,9.63283a.79382.79382,0,0,1-.749.53063H309.82163a.79393.79393,0,0,1-.74361-1.07212l21.20051-56.69306a.79378.79378,0,0,1,.74361-.51591H346.029a.7935.7935,0,0,1,.74361.5159l21.20032,56.693a.79393.79393,0,0,1-.74362,1.07212Zm-14.83733-1.588h13.69258l-20.60635-55.105h-13.9053l-20.60656,55.105h13.45867l3.38643-9.63283a.79381.79381,0,0,1,.749-.53063h19.77122a.79381.79381,0,0,1,.75085.53593Zm-7.554-19.5329H331.97487a.7938.7938,0,0,1-.75524-1.03878l6.4317-19.85057a.79366.79366,0,0,1,.75524-.54924h.1587a.794.794,0,0,1,.757.5548l6.27276,19.85056a.794.794,0,0,1-.757,1.03323Zm-11.77113-1.588h10.68763L338.47739,204.951Z"/><path class="cls-4" d="M91.82952,284.3767a18.18473,18.18473,0,0,0-9.90965-3.30321c-4.91243,0-8.46972,2.62551-10.58708,7.792H90.5589l-3.13366,7.538H69.97765a2.88779,2.88779,0,0,0-.08452.847v2.03285a2.88649,2.88649,0,0,0,.08452.84687H85.98532l-3.13365,7.53808H71.50236q3.176,7.62259,11.17976,7.62259c3.55729,0,7.45342-1.43979,11.77293-4.23487v15.7536A33.46577,33.46577,0,0,1,80.48,329.43522c-6.77573,0-12.573-1.9021-17.278-5.84407-4.69687-3.93514-7.87681-9.31658-9.65533-15.92289H46.94018l3.13392-7.53808h2.37144a2.34242,2.34242,0,0,1-.08478-.76222v-2.1175a2.60969,2.60969,0,0,1,.08477-.847H46.77088l3.13366-7.538H53.5466a29.87767,29.87767,0,0,1,9.82486-16.00767,26.62421,26.62421,0,0,1,17.44733-6.01339c5.33607,0,11.01072,1.60921,17.024,4.743Z"/><path d="M80.48,330.22917c-7.02812,0-13.01281-2.02857-17.788-6.02952a31.09335,31.09335,0,0,1-9.74927-15.73731H46.94025a.794.794,0,0,1-.73315-1.09887l3.13392-7.53808a.79394.79394,0,0,1,.73314-.48915h1.49265v-2.13869H46.77094a.79392.79392,0,0,1-.73314-1.09874l3.13366-7.538a.794.794,0,0,1,.73314-.48928H52.939a30.554,30.554,0,0,1,9.92838-15.8274,27.44006,27.44006,0,0,1,17.95134-6.1938c5.38634,0,11.23753,1.626,17.39112,4.83295a.794.794,0,0,1,.35152,1.04188l-6.01324,12.78924a.79394.79394,0,0,1-1.15122.32787,17.49539,17.49539,0,0,0-9.4771-3.17488c-4.19557,0-7.34009,2.08609-9.36092,6.204H90.559a.79419.79419,0,0,1,.73328,1.09874l-3.13366,7.53808a.79444.79444,0,0,1-.73327.48915H70.68721v2.13869H85.98539a.7942.7942,0,0,1,.73327,1.09875l-3.13379,7.53808a.79406.79406,0,0,1-.73314.48928H72.74a10.28049,10.28049,0,0,0,9.94222,6.03457c3.36033,0,7.07012-1.34352,11.34155-4.10744a.794.794,0,0,1,1.2254.66658v15.7536a.794.794,0,0,1-.46421.72229A33.978,33.978,0,0,1,80.48,330.22917ZM48.13023,306.87432h5.41645a.794.794,0,0,1,.76674.58762c1.76379,6.55151,4.92588,11.77333,9.39853,15.52046,4.48145,3.75488,10.123,5.65875,16.76809,5.65875a32.95809,32.95809,0,0,0,13.18107-2.34806V312.48666c-4.03519,2.41926-7.63745,3.59813-10.97892,3.59813-5.66212,0-9.67018-2.729-11.91265-8.11122a.794.794,0,0,1,.73289-1.09939H82.32187l2.47353-5.95H69.97771a.794.794,0,0,1-.75343-.54343,3.51046,3.51046,0,0,1-.1251-1.09745V297.2504a3.51049,3.51049,0,0,1,.1251-1.09746.79393.79393,0,0,1,.75343-.54355H86.89545l2.47353-5.94993H71.33285a.794.794,0,0,1-.73469-1.09512c2.2528-5.49748,6.062-8.28493,11.32165-8.28493a18.54453,18.54453,0,0,1,9.57248,2.94872l5.30555-11.28405c-5.67465-2.85774-11.04677-4.30567-15.97911-4.30567a25.8924,25.8924,0,0,0-16.94216,5.83194,29.19574,29.19574,0,0,0-9.56187,15.59684.794.794,0,0,1-.768.59241H50.43446l-2.47353,5.94993H52.4456a.79391.79391,0,0,1,.75317,1.04525,2.06783,2.06783,0,0,0-.04394.59576v2.1175a1.74771,1.74771,0,0,0,.04394.51086.79394.79394,0,0,1-.75317,1.04537H50.60389Z"/><path class="cls-4" d="M117.24543,312.64424h6.98716c11.19578-.23806,15.64219-4.60526,15.64218-15.95974,0-10.40164-5.47874-15.32466-15.6422-15.32466h-6.98716Zm-14.76886-43.98858,24.37633,0c17.38918,0,27.7907,10.56045,27.79071,28.1082,0,18.58007-10.56045,28.58484-27.79067,28.58485l-24.37634,0Z"/><path d="M126.853,326.14265H102.47666a.794.794,0,0,1-.794-.794l0-56.69305a.794.794,0,0,1,.794-.794H126.853c8.74447,0,15.99966,2.666,20.98111,7.70969,4.97447,5.03637,7.6036,12.36457,7.60361,21.19253,0,9.36079-2.57873,16.702-7.66485,21.81971C142.85808,323.52876,135.6241,326.14264,126.853,326.14265Zm-23.58233-1.588,23.58233,0c8.45809,0,15.11751-2.38566,19.79344-7.09055,4.77984-4.80944,7.20323-11.774,7.20322-20.70028,0-17.10332-10.09214-27.3142-26.99669-27.31419H103.27065Zm13.97482-11.11644a.794.794,0,0,1-.794-.794V281.35979a.794.794,0,0,1,.794-.794h6.98715c5.32676,0,9.42528,1.33989,12.18184,3.98259,2.823,2.70616,4.25438,6.78943,4.25438,12.13609,0,11.65171-4.75709,16.50561-16.4194,16.75361Zm.794-1.588h6.19314c10.81945-.23017,14.84818-4.34058,14.84818-15.16572,0-9.7777-4.85688-14.53066-14.8482-14.53065h-6.19314Z"/><path class="cls-4" d="M175.61231,304.22773h12.86316l-6.273-19.85056h-.1587Zm-.953-35.57212h15.00715l21.20032,56.693H195.46264l-3.49372-10.16346H172.198l-3.573,10.16347H153.45907Z"/><path d="M210.86685,326.14261H195.4627a.79382.79382,0,0,1-.75085-.53593l-3.30943-9.62753h-18.642L169.374,325.612a.7938.7938,0,0,1-.749.53064H153.45913a.79393.79393,0,0,1-.74361-1.07212l21.20026-56.69306a.7935.7935,0,0,1,.74361-.5159h15.00714a.7935.7935,0,0,1,.74361.5159l21.20032,56.693a.79394.79394,0,0,1-.74361,1.07213Zm-14.83759-1.588h13.69283l-20.60635-55.105H175.21018l-20.6063,55.105h13.45867l3.38644-9.63283a.79381.79381,0,0,1,.749-.53063h19.771a.79381.79381,0,0,1,.75085.53593Zm-7.55373-19.53291H175.61238a.7938.7938,0,0,1-.75525-1.03878l6.43144-19.85057a.79368.79368,0,0,1,.75524-.54925h.1587a.794.794,0,0,1,.75706.5548l6.273,19.85057a.794.794,0,0,1-.75705,1.03322Zm-11.77113-1.588h10.68738l-5.27714-16.69933Z"/><path class="cls-4" d="M225.23757,306.29208c.31766,6.66975,4.36707,8.81361,10.71917,8.81361,4.44668,0,9.0518-1.588,9.05179-5.79627,0-5.08173-8.10477-5.93421-16.27726-8.2579-8.02562-2.28194-16.59517-5.87574-16.59517-16.35672,0-12.3868,12.46613-17.23024,23.106-17.23024,11.19578,0,22.709,5.55807,22.709,18.2624H243.18245c.238-5.08173-4.68473-6.82858-9.13141-6.82858-3.17605,0-7.14611,1.11167-7.14611,4.84343,0,4.44667,8.17844,5.1612,16.43622,7.46388,8.17843,2.30256,16.43621,6.11392,16.43622,16.35673,0,14.37183-12.22783,18.97721-24.694,18.97722-12.94251,0-24.61465-5.717-24.61466-20.24756Z"/><path d="M235.08345,327.33361c-7.11923,0-13.21312-1.66775-17.62284-4.82312-5.09362-3.64465-7.78582-9.25288-7.78583-16.21845a.794.794,0,0,1,.794-.794h14.76883a.7941.7941,0,0,1,.79324.75627c.26881,5.64765,3.23731,8.05734,9.92593,8.05734,3.992,0,8.25778-1.31406,8.25778-5.00226,0-3.50443-4.90571-4.73486-11.11643-6.29252-1.49058-.37374-3.03157-.76028-4.58393-1.20161-8.49143-2.41434-17.17207-6.33645-17.17207-17.12049a15.78665,15.78665,0,0,1,7.93831-13.9349,31.099,31.099,0,0,1,15.96166-4.08935c11.69876,0,23.503,5.8924,23.503,19.05641a.794.794,0,0,1-.794.794H243.18251a.79427.79427,0,0,1-.79324-.8311,4.79734,4.79734,0,0,0-1.27269-3.68588c-1.40193-1.46912-3.977-2.3116-7.06547-2.3116-1.06076,0-6.3521.19528-6.3521,4.04942,0,2.85619,4.89072,4.01865,10.55349,5.36462,1.7201.40876,3.49862.83161,5.302,1.33446,3.56969,1.00492,8.10916,2.52083,11.57392,5.35066a14.50175,14.50175,0,0,1,5.44307,11.77087C260.57145,320.12726,251.28135,327.3336,235.08345,327.33361ZM211.275,307.08605c.18791,6.13809,2.57744,10.89,7.10967,14.133,4.13859,2.96126,9.913,4.52654,16.69882,4.52654,6.78555,0,12.52379-1.37428,16.59439-3.97434,4.84756-3.09631,7.30558-7.8768,7.30558-14.20887,0-9.80587-8.01612-13.38474-15.85751-15.59243-1.7718-.49406-3.53532-.9133-5.24069-1.31857-6.31772-1.5017-11.77423-2.79868-11.77424-6.90961,0-4.15642,4.10162-5.63744,7.94012-5.63744,3.52033,0,6.51416,1.02172,8.21436,2.80333a6.15813,6.15813,0,0,1,1.70718,4.02525h13.16815c-.47274-11.51-11.23275-16.67438-21.89867-16.67438-11.10584,0-22.31195,5.08226-22.31195,16.43623,0,9.70132,7.69872,13.22759,16.01828,15.59295,1.52832.43461,3.05741.81805,4.53611,1.189,6.60953,1.65767,12.318,3.08932,12.31805,7.83272a5.69092,5.69092,0,0,1-3.27478,5.17465,14.15682,14.15682,0,0,1-6.571,1.41563c-7.24588,0-10.90682-2.80566-11.45994-8.81361Z"/><rect class="cls-4" x="266.45384" y="268.65555" width="14.76884" height="56.69305"/><path d="M281.22275,326.14257H266.45392a.794.794,0,0,1-.794-.794l0-56.69306a.794.794,0,0,1,.794-.794h14.76883a.794.794,0,0,1,.794.794l0,56.69305A.794.794,0,0,1,281.22275,326.14257Zm-13.97482-1.588h13.18081l0-55.105H267.2479Z"/><path class="cls-3" d="M71.69067,216.74807c.31766,6.66975,4.36707,8.81361,10.71943,8.81361,4.44641,0,9.05179-1.588,9.05179-5.79627,0-5.08173-8.105-5.93417-16.27752-8.2579-8.02538-2.2819-16.59492-5.87574-16.59492-16.35673,0-12.38679,12.46614-17.23023,23.106-17.23023,11.19553,0,22.709,5.55807,22.709,18.2624H89.63554c.2383-5.08173-4.68473-6.82858-9.13115-6.82858-3.17605,0-7.14637,1.11167-7.14636,4.84343,0,4.44667,8.17843,5.1612,16.43647,7.46388,8.17817,2.30256,16.43622,6.11391,16.43622,16.35673,0,14.37183-12.22809,18.97721-24.69424,18.97722-12.9425,0-24.61464-5.717-24.61465-20.24756Z"/><path d="M81.53648,237.78967c-7.11923,0-13.21312-1.66776-17.62284-4.82313-5.09349-3.64464-7.78582-9.25287-7.78582-16.21844a.79406.79406,0,0,1,.794-.794H71.69066a.794.794,0,0,1,.79311.75627c.26894,5.64765,3.23757,8.05734,9.92632,8.05733,3.99217,0,8.25791-1.31405,8.25791-5.00225,0-3.50443-4.90572-4.73474-11.11656-6.29239-1.49059-.37387-3.03183-.76041-4.58418-1.20174-8.49131-2.41434-17.17182-6.33645-17.17182-17.1205a15.78624,15.78624,0,0,1,7.93843-13.93489,31.09817,31.09817,0,0,1,15.96154-4.08935c11.69863,0,23.50284,5.8924,23.50285,19.05641a.794.794,0,0,1-.794.794H89.63541a.79388.79388,0,0,1-.79324-.83123A4.79625,4.79625,0,0,0,87.56948,192.46c-1.40167-1.469-3.97678-2.3116-7.06508-2.3116-1.06076,0-6.35236.19528-6.35236,4.04942,0,2.85619,4.89073,4.01865,10.55362,5.36461,1.7201.4089,3.49862.83162,5.302,1.33447,3.56969,1.00505,8.10916,2.52083,11.57392,5.35066a14.502,14.502,0,0,1,5.44333,11.77087C107.02487,230.58332,97.73477,237.78966,81.53648,237.78967ZM57.72786,217.54211c.18817,6.13808,2.5777,10.89,7.10993,14.133,4.13859,2.96126,9.91288,4.52654,16.69869,4.52653,6.78542,0,12.52392-1.37427,16.59452-3.97433,4.84782-3.09632,7.30584-7.8768,7.30584-14.20887-.00027-9.80574-8.01638-13.38474-15.85777-15.59244-1.7718-.49406-3.53519-.91316-5.24056-1.31857-6.31811-1.50169-11.77449-2.79868-11.77449-6.9096,0-4.15642,4.10174-5.63744,7.94037-5.63744,3.5202,0,6.514,1.02171,8.214,2.80333A6.15843,6.15843,0,0,1,90.4258,195.389H103.594c-.47274-11.51-11.23275-16.67439-21.89854-16.67438-11.10584,0-22.31195,5.08226-22.31195,16.43622,0,9.70132,7.69859,13.22746,16.018,15.593,1.52845.43461,3.05754.818,4.53624,1.18894,6.60979,1.65768,12.3183,3.08933,12.31831,7.83273a5.69092,5.69092,0,0,1-3.27479,5.17465,14.15807,14.15807,0,0,1-6.57114,1.41563c-7.246,0-10.90708-2.80566-11.46007-8.81361Z"/><path class="cls-3" d="M128.19219,214.68365h12.86316l-6.273-19.85057h-.1587Zm-.953-35.57211h15.00714l21.20032,56.693H148.04251l-3.49371-10.16346h-19.771l-3.573,10.16346H106.039Z"/><path d="M163.44679,236.59861H148.04264a.79383.79383,0,0,1-.75085-.53594l-3.30942-9.62752h-18.642L121.954,236.068a.79383.79383,0,0,1-.749.53063H106.03908a.79394.79394,0,0,1-.74362-1.07213l21.2-56.69306a.79352.79352,0,0,1,.74361-.5159h15.00715a.79376.79376,0,0,1,.74361.5159l21.20057,56.693a.79394.79394,0,0,1-.74361,1.07213Zm-14.83759-1.588H162.302l-20.60662-55.105H127.78987l-20.606,55.105h13.45866l3.38644-9.63283a.79382.79382,0,0,1,.749-.53064h19.771a.79382.79382,0,0,1,.75085.53593Zm-7.55372-19.53291H128.19232a.7938.7938,0,0,1-.75524-1.03878l6.43118-19.85057a.79366.79366,0,0,1,.75524-.54924h.1587a.79393.79393,0,0,1,.75705.5548l6.27328,19.85056a.794.794,0,0,1-.75705,1.03322Zm-11.77139-1.588h10.68763l-5.2774-16.69933Z"/><path class="cls-3" d="M203.13874,217.85966c0,12.78367-6.59039,19.13591-19.85055,19.13591-15.00715,0-19.85058-8.65477-19.85058-21.27988v-2.46138h13.89522v5.24056c0,3.73188,1.9853,5.79626,5.71705,5.79626,3.41436,0,5.32-1.90556,5.32-7.38429l0-37.79533h14.76884Z"/><path d="M183.28831,237.78962c-13.8916,0-20.64458-7.22041-20.64459-22.0739v-2.46138a.794.794,0,0,1,.794-.794H177.333a.794.794,0,0,1,.794.794v5.24056c0,3.31924,1.65627,5.00225,4.923,5.00225,3.97781,0,4.526-3.1674,4.526-6.59028l-.00028-37.79533a.79421.79421,0,0,1,.794-.794h14.76884a.794.794,0,0,1,.794.794l.00028,38.74817C203.93289,231.08418,196.98709,237.78961,183.28831,237.78962Zm-19.05656-23.74127v1.66737c0,13.97638,6.05538,20.48588,19.05656,20.48587,12.82309,0,19.05655-5.99969,19.05655-18.3419l-.00028-37.95415H189.16377l.00028,37.00132c0,5.57954-1.9429,8.1783-6.114,8.1783-4.13781,0-6.51106-2.40206-6.51106-6.59027v-4.44655Z"/><path class="cls-3" d="M226.77508,214.68359h12.86316L233.36548,194.833h-.1587Zm-.95273-35.57211h15.00688l21.20032,56.693H246.62566L243.132,225.64106H223.36073l-3.573,10.16346H204.62184Z"/><path d="M262.02968,236.59856H246.62579a.79383.79383,0,0,1-.75085-.53594l-3.30942-9.62752H223.92329l-3.38644,9.63283a.79383.79383,0,0,1-.749.53063H204.622a.79394.79394,0,0,1-.74362-1.07213l21.20026-56.69306a.79351.79351,0,0,1,.74361-.5159h15.00689a.79376.79376,0,0,1,.74361.5159l21.20057,56.693a.79394.79394,0,0,1-.74361,1.07213Zm-14.83733-1.588h13.69258l-20.60662-55.105H226.373l-20.6063,55.105h13.45866l3.38644-9.63283a.79382.79382,0,0,1,.749-.53064h19.77122a.79382.79382,0,0,1,.75085.53593Zm-7.554-19.53291H226.77521a.7938.7938,0,0,1-.75524-1.03878l6.43144-19.85057a.79368.79368,0,0,1,.75524-.54925h.1587a.794.794,0,0,1,.757.55481l6.273,19.85056a.794.794,0,0,1-.757,1.03322Zm-11.77113-1.588h10.68737l-5.27714-16.69933Z"/><path class="cls-3" d="M315.18832,235.80448h-9.52815l-.87336-6.1934c-3.81136,5.47874-10.71942,7.38443-15.80116,7.38443-17.23022,0-28.26705-13.10144-28.26706-29.53766s11.03681-29.53742,28.267-29.53743c11.75148,0,24.37634,6.19326,25.647,20.48561H299.86376c-.556-4.84343-5.16109-7.78142-11.19579-7.78142-9.52815,0-13.18055,8.33727-13.18054,16.83323s3.65241,16.83321,13.18056,16.8332c7.30507,0,12.14849-3.41423,13.02211-8.57544H291.36768V204.75814H315.1883Z"/><path d="M288.98578,237.78956c-8.51159,0-15.835-3.06412-21.17884-8.86116a33.18205,33.18205,0,0,1,0-42.9409c5.3433-5.79691,12.667-8.86105,21.17857-8.86105,12.22087,0,25.13546,6.55808,26.43788,21.20932a.79411.79411,0,0,1-.79091.86431H299.86363a.79408.79408,0,0,1-.78885-.70342c-.49341-4.29973-4.57849-7.078-10.40694-7.078a10.76223,10.76223,0,0,0-9.50333,4.87807,23.04384,23.04384,0,0,0,.00027,22.32242,10.76241,10.76241,0,0,0,9.50334,4.87792c6.287,0,10.79593-2.65162,12.03011-6.98742h-9.33042a.794.794,0,0,1-.794-.794l-.00026-10.95748a.79421.79421,0,0,1,.794-.794h23.82063a.794.794,0,0,1,.794.794l.00028,31.04635a.79421.79421,0,0,1-.794.794H305.6603a.794.794,0,0,1-.78626-.68313l-.6149-4.36035C300.16915,236.11869,293.84523,237.78956,288.98578,237.78956Zm-.00029-59.07509c-8.05643,0-14.97612,2.88709-20.01107,8.34929a31.60011,31.60011,0,0,0,.00028,40.78838c5.035,5.46219,11.95465,8.3494,20.01108,8.3494,4.95482,0,11.53644-1.85038,15.1493-7.0439a.79406.79406,0,0,1,1.43811.3426l.777,5.51027h8.04428l-.00027-29.45833h-22.2326l.00026,9.36945h9.52841a.79391.79391,0,0,1,.78289.92648c-.96434,5.69765-6.25413,9.237-13.805,9.237a12.42031,12.42031,0,0,1-10.82333-5.58316c-2.60458-3.89445-3.1515-8.69924-3.15151-12.04407s.54666-8.14948,3.15124-12.04394a12.42013,12.42013,0,0,1,10.82332-5.58329c6.37924,0,10.95334,3.02949,11.87633,7.78142H313.749a19.76958,19.76958,0,0,0-8.46378-14.157A28.68043,28.68043,0,0,0,288.98549,178.71447Z"/><path class="cls-3" d="M340.91384,214.68353H353.777L347.50424,194.833h-.1587Zm-.95273-35.57212H354.968l21.20031,56.693H360.76442L357.27071,225.641H337.49949l-3.573,10.16347H318.7606Z"/><path d="M376.16844,236.5985H360.76455a.79383.79383,0,0,1-.75085-.53593l-3.30942-9.62753H338.06205l-3.38644,9.63283a.79383.79383,0,0,1-.749.53063H318.76073a.79394.79394,0,0,1-.74361-1.07212l21.20025-56.69307a.79352.79352,0,0,1,.74361-.5159h15.00689a.79377.79377,0,0,1,.74361.51591l21.20057,56.693a.79394.79394,0,0,1-.74361,1.07212Zm-14.83733-1.588h13.69258l-20.60662-55.105H340.51178l-20.6063,55.105h13.45866l3.38644-9.63283a.79382.79382,0,0,1,.749-.53064h19.77122a.79383.79383,0,0,1,.75085.53594Zm-7.554-19.5329H340.914a.7938.7938,0,0,1-.75524-1.03878l6.43144-19.85057a.79366.79366,0,0,1,.75524-.54924h.1587a.794.794,0,0,1,.757.5548l6.273,19.85056a.794.794,0,0,1-.757,1.03323Zm-11.77113-1.588h10.68737l-5.27714-16.69933Z"/><path class="cls-3" d="M100.76856,276.61586a18.18489,18.18489,0,0,0-9.90965-3.30321c-4.91243,0-8.46972,2.62552-10.58708,7.792H99.49794l-3.13366,7.538H78.91669a2.88773,2.88773,0,0,0-.08452.847v2.03284a2.88642,2.88642,0,0,0,.08452.84687H94.92436l-3.13366,7.53808H80.44139Q83.61745,307.53,91.62115,307.53c3.55729,0,7.45343-1.4398,11.77294-4.23487v15.7536A33.46593,33.46593,0,0,1,89.419,321.67439c-6.77573,0-12.573-1.9021-17.278-5.84407-4.69687-3.93515-7.87681-9.31659-9.65533-15.92289H55.87922l3.13392-7.53808h2.37144a2.34236,2.34236,0,0,1-.08478-.76222v-2.11749a2.60963,2.60963,0,0,1,.08477-.847H55.70992l3.13365-7.53795h3.64207A29.8776,29.8776,0,0,1,72.3105,265.097a26.6243,26.6243,0,0,1,17.44733-6.01339c5.33607,0,11.01072,1.60922,17.024,4.743Z"/><path d="M89.41914,322.46842c-7.02786,0-13.01268-2.02857-17.78813-6.02939a31.09492,31.09492,0,0,1-9.74928-15.73757H55.87921a.794.794,0,0,1-.73314-1.09887L58.28,292.06451a.79415.79415,0,0,1,.73315-.48915h1.49265v-2.13869H55.70991a.79392.79392,0,0,1-.73314-1.09874L58.11042,280.8a.79386.79386,0,0,1,.73315-.48928H61.878a30.55435,30.55435,0,0,1,9.9285-15.82727,27.44021,27.44021,0,0,1,17.95148-6.1938c5.3862,0,11.23739,1.626,17.391,4.833a.794.794,0,0,1,.35152,1.04188l-6.01325,12.78924a.79395.79395,0,0,1-1.15121.32787,17.49509,17.49509,0,0,0-9.477-3.17489c-4.19571,0-7.34022,2.0861-9.36118,6.204h18.0002a.79419.79419,0,0,1,.73327,1.09874l-3.13365,7.53808a.79445.79445,0,0,1-.73328.48915H79.62617v2.13869H94.92448a.79419.79419,0,0,1,.73327,1.09875l-3.13365,7.53808a.79437.79437,0,0,1-.73327.48927H81.67893a10.28066,10.28066,0,0,0,9.94234,6.03457c3.36034,0,7.07013-1.34352,11.34156-4.10745a.794.794,0,0,1,1.22539.66659v15.7536a.794.794,0,0,1-.46421.72229A33.97793,33.97793,0,0,1,89.41914,322.46842Zm-32.34994-23.355h5.41644a.794.794,0,0,1,.76675.58762c1.76378,6.55138,4.92588,11.77333,9.39853,15.52059,4.4817,3.75488,10.1234,5.65875,16.76822,5.65875a32.95873,32.95873,0,0,0,13.18107-2.34806V304.72591c-4.03519,2.41926-7.63746,3.59813-10.97893,3.59813-5.66224,0-9.6703-2.729-11.91277-8.11122a.794.794,0,0,1,.73288-1.09939H91.261l2.47353-5.95005H78.91668a.794.794,0,0,1-.75343-.54342,3.51049,3.51049,0,0,1-.1251-1.09746v-2.03284a3.51049,3.51049,0,0,1,.1251-1.09746.794.794,0,0,1,.75343-.54356H95.83454l2.47354-5.94993H80.27182a.794.794,0,0,1-.73469-1.09513c2.25293-5.49747,6.06222-8.28492,11.32191-8.28492a18.5444,18.5444,0,0,1,9.57234,2.94872l5.30556-11.284c-5.67466-2.85774-11.04665-4.30568-15.979-4.30567a25.89273,25.89273,0,0,0-16.94229,5.83194,29.19656,29.19656,0,0,0-9.562,15.59671.79411.79411,0,0,1-.768.59241h-3.1122l-2.47354,5.94993h4.48468a.79391.79391,0,0,1,.75317,1.04525,2.06783,2.06783,0,0,0-.04394.59576v2.1175a1.74771,1.74771,0,0,0,.04394.51086.79394.79394,0,0,1-.75317,1.04537H59.54286Z"/><path class="cls-3" d="M126.18447,304.88341h6.98715c11.19578-.238,15.6422-4.60525,15.64219-15.95973,0-10.40164-5.47874-15.32467-15.64221-15.32466h-6.98715Zm-14.76886-43.98859h24.37633c17.38918,0,27.7907,10.56045,27.79071,28.1082,0,18.58007-10.56045,28.58484-27.79067,28.58485H111.41564Z"/><path d="M135.7921,318.3819H111.41576a.794.794,0,0,1-.794-.794l0-56.693a.794.794,0,0,1,.794-.794h24.37634c8.74447,0,15.99966,2.666,20.9811,7.70969,4.97447,5.03637,7.60361,12.36457,7.60361,21.19253,0,9.36079-2.57872,16.702-7.66484,21.8197C151.79718,315.768,144.56319,318.38189,135.7921,318.3819Zm-23.58233-1.588h23.58232c8.4581,0,15.11751-2.38566,19.79345-7.09055,4.77984-4.80944,7.20322-11.774,7.20322-20.70028,0-17.10332-10.09214-27.3142-26.99669-27.3142l-23.58233,0Zm13.97482-11.11643a.794.794,0,0,1-.794-.794l0-31.28439a.794.794,0,0,1,.794-.794h6.98716c5.32676,0,9.42528,1.33989,12.18183,3.98259,2.823,2.70615,4.25438,6.78942,4.25439,12.13608,0,11.65172-4.75709,16.50562-16.41941,16.75362Zm.794-1.588h6.19314c10.81946-.23017,14.84819-4.34059,14.84818-15.16572,0-9.7777-4.85687-14.53066-14.84819-14.53066h-6.19314Z"/><path class="cls-3" d="M184.55135,296.46689h12.86316l-6.273-19.85057h-.1587Zm-.953-35.57211h15.00715l21.20031,56.693H204.40167L200.908,307.42436H181.137l-3.573,10.16346H162.39811Z"/><path d="M219.80594,318.38185H204.40179a.7938.7938,0,0,1-.75084-.53593l-3.30943-9.62753h-18.642l-3.38644,9.63283a.79382.79382,0,0,1-.749.53064H162.39823a.79393.79393,0,0,1-.74361-1.07212l21.20025-56.69306a.79352.79352,0,0,1,.74362-.5159h15.00714a.79351.79351,0,0,1,.74361.5159l21.20031,56.693a.79392.79392,0,0,1-.74361,1.07212Zm-14.83759-1.588h13.69284l-20.60635-55.105H184.14928l-20.6063,55.105h13.45867l3.38643-9.63283a.79383.79383,0,0,1,.749-.53063h19.771a.79382.79382,0,0,1,.75085.53593Zm-7.55372-19.53291H184.55147a.7938.7938,0,0,1-.75524-1.03878l6.43144-19.85058a.79367.79367,0,0,1,.75524-.54924h.1587a.794.794,0,0,1,.75705.5548l6.273,19.85056a.794.794,0,0,1-.75705,1.03323Zm-11.77113-1.588h10.68737l-5.27714-16.69933Z"/><path class="cls-3" d="M234.17661,298.53124c.31766,6.66976,4.36707,8.81362,10.71917,8.81361,4.44668,0,9.05179-1.588,9.05179-5.79627,0-5.08173-8.10477-5.9342-16.27726-8.2579-8.02562-2.28193-16.59517-5.87573-16.59518-16.35672,0-12.3868,12.46614-17.23023,23.106-17.23024,11.19578,0,22.709,5.55808,22.709,18.2624H252.12148c.23805-5.08173-4.68473-6.82858-9.1314-6.82858-3.17605,0-7.14611,1.11168-7.14611,4.84343,0,4.44668,8.17843,5.16121,16.43622,7.46389,8.17843,2.30255,16.43621,6.11391,16.43622,16.35672,0,14.37183-12.22783,18.97721-24.694,18.97722-12.94251,0-24.61465-5.717-24.61466-20.24756Z"/><path d="M244.02255,319.57286c-7.11923,0-13.21313-1.66776-17.62284-4.82313-5.09362-3.64464-7.78583-9.25287-7.78583-16.21844a.794.794,0,0,1,.794-.794h14.76884a.79428.79428,0,0,1,.79324.75627c.26881,5.64765,3.23731,8.05734,9.92593,8.05734,3.992,0,8.25778-1.31406,8.25778-5.00226,0-3.50456-4.906-4.735-11.117-6.29265-1.49033-.37374-3.03131-.76028-4.58341-1.20148-8.49143-2.41447-17.17207-6.33671-17.17208-17.1205a15.78666,15.78666,0,0,1,7.93831-13.93489,31.099,31.099,0,0,1,15.96166-4.08935c11.69876,0,23.503,5.8924,23.503,19.05641a.794.794,0,0,1-.794.794H252.12161a.79427.79427,0,0,1-.79324-.8311,4.79738,4.79738,0,0,0-1.2727-3.68588c-1.40193-1.46913-3.977-2.3116-7.06547-2.3116-1.06075,0-6.3521.19528-6.35209,4.04942,0,2.85619,4.89072,4.01865,10.55349,5.36461,1.7201.40877,3.49862.83162,5.30194,1.33447,3.5697,1.00492,8.10917,2.52083,11.57393,5.35066a14.50178,14.50178,0,0,1,5.44307,11.77087C269.51055,312.36651,260.22045,319.57285,244.02255,319.57286Zm-23.8085-20.24756c.18791,6.13809,2.57745,10.89,7.10968,14.133,4.13858,2.96126,9.913,4.52654,16.69882,4.52654,6.78554,0,12.52378-1.37428,16.59439-3.97434,4.84755-3.09631,7.30558-7.8768,7.30558-14.20887,0-9.80587-8.01612-13.38474-15.85751-15.59244-1.7718-.49406-3.53532-.91329-5.24069-1.31857-6.31773-1.50169-11.77424-2.79868-11.77424-6.9096,0-4.15642,4.10162-5.63744,7.94012-5.63744,3.52033,0,6.51416,1.02172,8.21436,2.80333a6.15813,6.15813,0,0,1,1.70718,4.02525h13.16815c-.47274-11.51-11.23275-16.67438-21.89867-16.67438-11.10584,0-22.312,5.08226-22.31195,16.43622,0,9.70107,7.69872,13.22747,16.01828,15.593,1.52832.43448,3.05689.81792,4.53533,1.18869,6.61005,1.6578,12.31882,3.08945,12.31882,7.833a5.69089,5.69089,0,0,1-3.27478,5.17465,14.15679,14.15679,0,0,1-6.571,1.41563c-7.24588,0-10.90681-2.80566-11.45994-8.81361Z"/><rect class="cls-3" x="275.39288" y="260.89472" width="14.76884" height="56.69305"/><path d="M290.16185,318.38182H275.393a.794.794,0,0,1-.794-.794l0-56.693a.794.794,0,0,1,.794-.794h14.76884a.794.794,0,0,1,.794.794l0,56.69305A.794.794,0,0,1,290.16185,318.38182Zm-13.97483-1.588h13.18082l0-55.105H276.187Z"/><path class="cls-4" d="M80.62971,208.98722c.31766,6.66976,4.36707,8.81361,10.71943,8.81361,4.44642,0,9.05179-1.588,9.05179-5.79627,0-5.08173-8.09909-5.95522-16.27752-8.2579-8.01947-2.30255-16.59491-5.87573-16.59492-16.35672,0-12.3868,12.46614-17.23023,23.106-17.23024,11.19552,0,22.709,5.55808,22.709,18.2624H98.57458c.23831-5.08173-4.68472-6.82858-9.13114-6.82858-3.176,0-7.14637,1.11168-7.14637,4.84343,0,4.44668,8.17843,5.16121,16.43647,7.46389,8.17818,2.30255,16.43622,6.11391,16.43622,16.35672,0,14.37183-12.22809,18.97721-24.69424,18.97722-12.9425,0-24.61464-5.717-24.61465-20.24756Z"/><path d="M90.47545,230.02879c-7.11923,0-13.213-1.66776-17.62271-4.82313-5.09349-3.64465-7.78582-9.25287-7.78583-16.21845a.794.794,0,0,1,.794-.794H80.62976a.794.794,0,0,1,.79311.75628c.26894,5.64765,3.23757,8.05734,9.92619,8.05733,3.992,0,8.25778-1.31405,8.25778-5.00225,0-3.354-4.259-4.58806-11.20845-6.32379-1.46008-.3647-2.97018-.7418-4.4901-1.16983-3.8407-1.10275-8.21668-2.58816-11.58245-5.25321a14.24062,14.24062,0,0,1-5.59131-11.8678A15.78624,15.78624,0,0,1,74.673,173.455a31.09778,31.09778,0,0,1,15.9614-4.08936c11.69876,0,23.503,5.89241,23.503,19.05642a.794.794,0,0,1-.794.794H98.57451a.79388.79388,0,0,1-.79324-.83123,4.79629,4.79629,0,0,0-1.27269-3.68575c-1.40168-1.469-3.97679-2.3116-7.06522-2.3116-1.06075,0-6.35223.19527-6.35222,4.04941,0,2.8562,4.89085,4.01866,10.55388,5.36462,1.71984.4089,3.49836.83162,5.30168,1.33447,3.5697,1.005,8.10917,2.52083,11.57393,5.35066a14.50178,14.50178,0,0,1,5.44307,11.77087C115.96371,222.82244,106.67361,230.02878,90.47545,230.02879ZM66.667,209.78123c.18816,6.13808,2.5777,10.89,7.10993,14.133,4.13845,2.96126,9.91275,4.52654,16.69856,4.52653,6.78555,0,12.52378-1.37428,16.59465-3.97433,4.84755-3.09632,7.30558-7.8768,7.30558-14.20887,0-9.80574-8.01612-13.38474-15.85751-15.59244-1.7718-.49406-3.53507-.91316-5.24044-1.31857-6.31824-1.50169-11.77462-2.79855-11.77462-6.90961,0-4.15641,4.10175-5.63743,7.94025-5.63744,3.52033,0,6.51416,1.02185,8.21436,2.80334a6.15942,6.15942,0,0,1,1.70718,4.02524h13.16815c-.47274-11.51-11.23275-16.67439-21.89867-16.67438-11.10584,0-22.31183,5.08226-22.31182,16.43622,0,9.662,7.6995,13.20459,16.02009,15.5936,1.49329.4204,2.99163.79466,4.4406,1.15651,6.65993,1.66349,12.41161,3.10005,12.41161,7.86452a5.69091,5.69091,0,0,1-3.27478,5.17465,14.15679,14.15679,0,0,1-6.571,1.41563c-7.24588,0-10.90694-2.80566-11.45994-8.81361Z"/><path class="cls-4" d="M137.13123,206.92281h12.86316l-6.273-19.85057h-.1587Zm-.953-35.57211h15.00714l21.20031,56.693H156.98155l-3.49371-10.16346h-19.771l-3.573,10.16346H114.978Z"/><path d="M172.38563,228.83773H156.98148a.79383.79383,0,0,1-.75085-.53594l-3.30942-9.62752h-18.642l-3.38643,9.63282a.79382.79382,0,0,1-.749.53064H114.97791a.79394.79394,0,0,1-.74361-1.07213l21.20026-56.69306a.7935.7935,0,0,1,.74361-.5159h15.00714a.79352.79352,0,0,1,.74362.5159l21.20031,56.693a.79394.79394,0,0,1-.74361,1.07213Zm-14.83759-1.588h13.69284l-20.60636-55.105H136.729l-20.6063,55.105h13.45866l3.38644-9.63282a.79382.79382,0,0,1,.749-.53064h19.771a.79382.79382,0,0,1,.75085.53593Zm-7.55373-19.53291H137.13116a.7938.7938,0,0,1-.75524-1.03878l6.43143-19.85057a.79369.79369,0,0,1,.75525-.54925h.1587a.794.794,0,0,1,.757.5548l6.273,19.85057a.794.794,0,0,1-.75706,1.03322Zm-11.77113-1.588h10.68738l-5.27714-16.69933Z"/><path class="cls-4" d="M212.07778,210.09882c0,12.78368-6.59039,19.13591-19.85055,19.13592-15.00715,0-19.85058-8.65478-19.85058-21.27988v-2.46139h13.89521V210.734c0,3.73189,1.98529,5.79626,5.717,5.79626,3.41436,0,5.32-1.90555,5.32-7.38429l0-37.79532h14.76883Z"/><path d="M192.22715,230.02874c-13.8916,0-20.64458-7.22041-20.64459-22.0739v-2.46139a.794.794,0,0,1,.794-.794h13.89522a.794.794,0,0,1,.794.794V210.734c0,3.31924,1.65627,5.00225,4.923,5.00225,3.97781,0,4.526-3.1674,4.526-6.59028l0-37.79533a.794.794,0,0,1,.794-.794h14.76884a.794.794,0,0,1,.794.794l0,38.74817C212.87173,223.3233,205.92593,230.02873,192.22715,230.02874Zm-19.05657-23.74127v1.66737c0,13.97638,6.05539,20.48588,19.05657,20.48587,12.82309,0,19.05655-5.99969,19.05655-18.3419l0-37.95415H198.10286l0,37.00132c0,5.57953-1.94289,8.1783-6.114,8.1783-4.13781,0-6.51106-2.40207-6.51106-6.59027v-4.44655Z"/><path class="cls-4" d="M235.71412,206.92276h12.86316l-6.27276-19.85057h-.1587Zm-.95272-35.57211h15.00688l21.20031,56.693H255.5647L252.071,217.88023H232.29977l-3.573,10.16346H213.56088Z"/><path d="M270.96852,228.83768H255.56463a.79383.79383,0,0,1-.75085-.53594l-3.30942-9.62752H232.86212l-3.38643,9.63282a.79382.79382,0,0,1-.749.53064H213.5608a.79394.79394,0,0,1-.74361-1.07213l21.20052-56.69306a.79375.79375,0,0,1,.74361-.5159H249.7682a.79352.79352,0,0,1,.74362.5159l21.20031,56.693a.79394.79394,0,0,1-.74361,1.07213Zm-14.83733-1.588h13.69258l-20.60636-55.105h-13.9053l-20.60655,55.105h13.45866l3.38644-9.63283a.79383.79383,0,0,1,.749-.53063h19.77122a.7938.7938,0,0,1,.75084.53593Zm-7.554-19.53291H235.71405a.7938.7938,0,0,1-.75524-1.03878l6.43169-19.85057a.79368.79368,0,0,1,.75525-.54925h.15869a.794.794,0,0,1,.75706.5548l6.27276,19.85057a.794.794,0,0,1-.75706,1.03322Zm-11.77113-1.588h10.68764l-5.27714-16.69933Z"/><path class="cls-4" d="M324.12736,228.04365h-9.52815l-.87336-6.1934c-3.81136,5.47874-10.71942,7.38442-15.80115,7.38443-17.23023,0-28.26706-13.10145-28.26707-29.53766s11.03681-29.53742,28.267-29.53743c11.75149,0,24.37634,6.19325,25.647,20.48561H308.8028c-.556-4.84342-5.16108-7.78142-11.19579-7.78142-9.52814,0-13.18054,8.33727-13.18054,16.83323s3.65241,16.83321,13.18056,16.83321c7.30507,0,12.14849-3.41423,13.02211-8.57544H300.30672V196.99732l23.82063,0Z"/><path d="M297.92462,230.02868c-8.5116,0-15.835-3.06412-21.17858-8.86116a33.182,33.182,0,0,1,0-42.9409c5.3433-5.79691,12.667-8.86105,21.17857-8.86105,12.22086,0,25.13546,6.55808,26.43788,21.20932a.79411.79411,0,0,1-.79091.86431H308.80272a.79408.79408,0,0,1-.78884-.70342c-.49342-4.29974-4.5785-7.078-10.40694-7.078a10.76221,10.76221,0,0,0-9.50333,4.87806,23.04477,23.04477,0,0,0,0,22.32243,10.76211,10.76211,0,0,0,9.50334,4.87792c6.287,0,10.79593-2.65162,12.03011-6.98742h-9.33042a.794.794,0,0,1-.794-.794V196.9973a.794.794,0,0,1,.794-.794h23.82063a.794.794,0,0,1,.794.794l0,31.04635a.794.794,0,0,1-.794.794h-9.52815a.794.794,0,0,1-.78626-.68313l-.6149-4.36035C309.108,228.35781,302.78407,230.02868,297.92462,230.02868Zm0-59.07509c-8.05643,0-14.97613,2.88709-20.01107,8.34929a31.60053,31.60053,0,0,0,0,40.78838c5.03495,5.46219,11.95464,8.3494,20.01108,8.3494,4.95482,0,11.53644-1.85038,15.1493-7.0439a.79406.79406,0,0,1,1.43811.3426l.777,5.51027h8.04428V197.7913H301.10065v9.36945h9.5284a.79427.79427,0,0,1,.7829.92647c-.96434,5.69766-6.25413,9.237-13.805,9.237a12.42033,12.42033,0,0,1-10.82334-5.58316c-2.60458-3.89458-3.15124-8.69924-3.15124-12.04407s.54666-8.14948,3.15123-12.04394a12.42014,12.42014,0,0,1,10.82333-5.58329c6.37924,0,10.95334,3.02949,11.87633,7.78142h13.20485a19.76954,19.76954,0,0,0-8.46379-14.157A28.68037,28.68037,0,0,0,297.92459,170.95359Z"/><path class="cls-4" d="M349.85289,206.9227H362.716l-6.27276-19.85057h-.1587Zm-.95273-35.57211H363.907l21.20032,56.693h-15.4039l-3.49371-10.16346H346.43853l-3.57305,10.16346H327.69964Z"/><path d="M385.10728,228.83762H369.70339a.79383.79383,0,0,1-.75085-.53594l-3.30942-9.62752H347.00088l-3.38643,9.63283a.79383.79383,0,0,1-.749.53063H327.69957a.79394.79394,0,0,1-.74362-1.07212l21.20052-56.69307a.79375.79375,0,0,1,.74361-.5159H363.907a.79352.79352,0,0,1,.74361.5159l21.20031,56.69305a.79394.79394,0,0,1-.74361,1.07212ZM370.27,227.2496h13.69258l-20.60636-55.105h-13.9053l-20.60655,55.105H342.303l3.38644-9.63283a.79382.79382,0,0,1,.749-.53064h19.77122a.79383.79383,0,0,1,.75085.53593Zm-7.554-19.53291H349.85281a.7938.7938,0,0,1-.75524-1.03878l6.43169-19.85057a.79368.79368,0,0,1,.75525-.54924h.1587a.794.794,0,0,1,.757.5548l6.27276,19.85056a.794.794,0,0,1-.757,1.03322Zm-11.77114-1.588h10.68764l-5.27714-16.69933Z"/><path class="cls-4" d="M109.7076,268.855a18.18475,18.18475,0,0,0-9.90965-3.30321c-4.91243,0-8.46972,2.62551-10.58709,7.792H108.437l-3.13365,7.538H87.85572a2.88776,2.88776,0,0,0-.08452.847v2.03285a2.88682,2.88682,0,0,0,.08451.84687H103.8634l-3.13366,7.53808H89.38043q3.17605,7.62259,11.17976,7.62259c3.55729,0,7.45343-1.43979,11.77294-4.23486v15.75359a33.46577,33.46577,0,0,1-13.97508,2.62565,26.33625,26.33625,0,0,1-17.278-5.84407,30.91839,30.91839,0,0,1-9.65532-15.92289H64.81826l3.13391-7.53808h2.37144a2.34245,2.34245,0,0,1-.08478-.76223v-2.11749a2.60936,2.60936,0,0,1,.08478-.847H64.649l3.13366-7.538h3.64207a29.87757,29.87757,0,0,1,9.82486-16.00767,26.62417,26.62417,0,0,1,17.44733-6.01339c5.33606,0,11.01072,1.60921,17.024,4.743Z"/><path d="M98.358,314.70754a27.22614,27.22614,0,0,1-17.78193-6.02448A31.59779,31.59779,0,0,1,70.821,292.94058H64.81831a.794.794,0,0,1-.73314-1.09887l3.13391-7.53808a.79414.79414,0,0,1,.73314-.48915h1.49265v-2.13869H64.649a.79392.79392,0,0,1-.73315-1.09874l3.13366-7.53795a.79385.79385,0,0,1,.73314-.48928h3.03441a30.55437,30.55437,0,0,1,9.92851-15.82726,27.4397,27.4397,0,0,1,17.95122-6.1938c5.3862,0,11.23739,1.626,17.391,4.833a.794.794,0,0,1,.35151,1.04188l-6.01324,12.78924a.79394.79394,0,0,1-1.15121.32786,17.49518,17.49518,0,0,0-9.477-3.17488c-4.19571,0-7.34,2.0861-9.36092,6.204H108.4369a.79419.79419,0,0,1,.73327,1.09874l-3.13366,7.53808a.79444.79444,0,0,1-.73327.48915H88.56514v2.13869h15.29818a.79419.79419,0,0,1,.73327,1.09875l-3.13365,7.53807a.79437.79437,0,0,1-.73328.48928H90.6179a10.28036,10.28036,0,0,0,9.94221,6.03457c3.36034,0,7.07012-1.34352,11.34156-4.10745a.794.794,0,0,1,1.22539.66659v15.7536a.794.794,0,0,1-.46421.72229A33.97793,33.97793,0,0,1,98.358,314.70754Zm-32.34969-23.355h5.41645a.794.794,0,0,1,.76674.58763,30.225,30.225,0,0,0,9.40435,15.52562A25.67211,25.67211,0,0,0,98.358,313.11952a32.95873,32.95873,0,0,0,13.18107-2.34806V296.965c-4.0352,2.41926-7.63746,3.59813-10.97893,3.59813-5.662,0-9.67-2.729-11.91277-8.11122a.79411.79411,0,0,1,.733-1.09939H100.1998l2.47354-5.95H87.85565a.79411.79411,0,0,1-.75343-.54342,3.51049,3.51049,0,0,1-.1251-1.09746v-2.03285a3.51073,3.51073,0,0,1,.12509-1.09745.79382.79382,0,0,1,.75344-.54356h16.91773l2.47353-5.94993H89.21079a.79416.79416,0,0,1-.73482-1.09513c2.25305-5.49747,6.06235-8.28492,11.3219-8.28492a18.5444,18.5444,0,0,1,9.57235,2.94872l5.30556-11.284c-5.67466-2.85774-11.04665-4.30568-15.979-4.30567a25.89226,25.89226,0,0,0-16.942,5.83194,29.19656,29.19656,0,0,0-9.562,15.59671.79411.79411,0,0,1-.768.59241H68.31252L65.839,280.08777h4.48467a.79392.79392,0,0,1,.75318,1.04525,2.06783,2.06783,0,0,0-.04394.59576v2.1175a1.74771,1.74771,0,0,0,.04394.51086.79394.79394,0,0,1-.75318,1.04537H68.482Z"/><path class="cls-4" d="M135.1235,297.12257h6.98716c11.19578-.23805,15.64219-4.60525,15.64219-15.95973,0-10.40164-5.47875-15.32467-15.64221-15.32466h-6.98715ZM120.35465,253.134H144.731c17.38918,0,27.7907,10.56045,27.79071,28.1082,0,18.58007-10.56046,28.58484-27.79068,28.58485H120.35467Z"/><path d="M144.73093,310.621H120.3546a.794.794,0,0,1-.794-.794l0-56.69306a.794.794,0,0,1,.794-.794H144.7309c8.74448,0,15.99966,2.66595,20.98111,7.70969,4.97447,5.03637,7.60361,12.36457,7.60361,21.19253,0,9.36079-2.57872,16.702-7.66484,21.8197C160.736,308.00712,153.502,310.621,144.73093,310.621Zm-23.58232-1.588h23.58232c8.4581,0,15.11751-2.38566,19.79345-7.09055,4.77983-4.80944,7.20322-11.774,7.20322-20.70028,0-17.10332-10.09214-27.3142-26.9967-27.3142l-23.58232,0Zm13.97482-11.11644a.794.794,0,0,1-.794-.794l0-31.2844a.794.794,0,0,1,.794-.794h6.98716c5.32675,0,9.42527,1.33989,12.18183,3.98259,2.823,2.70615,4.25438,6.78942,4.25439,12.13608,0,11.65172-4.75709,16.50562-16.41941,16.75362Zm.794-1.588h6.19314c10.81945-.23018,14.84819-4.34059,14.84818-15.16573,0-9.77769-4.85687-14.53065-14.84819-14.53065h-6.19314Z"/><path class="cls-4" d="M193.49039,288.70606h12.86315l-6.273-19.85056h-.1587Zm-.953-35.57212h15.00714l21.20032,56.693H213.34071L209.847,299.66352H190.076L186.503,309.827H171.33714Z"/><path d="M228.74478,310.621H213.34063a.79382.79382,0,0,1-.75085-.53593l-3.30942-9.62753h-18.642l-3.38644,9.63283a.79381.79381,0,0,1-.749.53063H171.33707a.79393.79393,0,0,1-.74361-1.07212l21.20025-56.69306a.79353.79353,0,0,1,.74361-.51591h15.00715a.79351.79351,0,0,1,.74361.5159l21.20031,56.693a.79393.79393,0,0,1-.74361,1.07212Zm-14.83759-1.588H227.6l-20.60636-55.105H193.08812l-20.6063,55.105h13.45866l3.38644-9.63283a.79383.79383,0,0,1,.749-.53063h19.771a.79382.79382,0,0,1,.75085.53593Zm-7.55372-19.53291H193.49031a.7938.7938,0,0,1-.75524-1.03878l6.43144-19.85057a.79366.79366,0,0,1,.75524-.54924h.1587a.794.794,0,0,1,.757.5548l6.273,19.85056a.794.794,0,0,1-.75705,1.03323Zm-11.77113-1.588h10.68737l-5.27714-16.69932Z"/><path class="cls-4" d="M243.11564,290.77041c.31766,6.66976,4.36708,8.81362,10.71918,8.81361,4.44667,0,9.05179-1.588,9.05179-5.79627,0-5.08173-8.09883-5.95521-16.27726-8.2579-8.01973-2.30255-16.59517-5.87573-16.59518-16.35672,0-12.3868,12.46614-17.23023,23.106-17.23024,11.19578,0,22.709,5.55808,22.709,18.26241H261.06052c.238-5.08173-4.68473-6.82858-9.1314-6.82858-3.17605,0-7.14611,1.11168-7.14611,4.84343,0,4.44668,8.17843,5.16121,16.43621,7.46389,8.17843,2.30255,16.43622,6.11391,16.43622,16.35672,0,14.37183-12.22783,18.97722-24.694,18.97722-12.9425,0-24.61464-5.717-24.61465-20.24756Z"/><path d="M252.96138,311.812c-7.11923,0-13.21312-1.66776-17.62283-4.82313-5.09363-3.64464-7.78583-9.25287-7.78583-16.21844a.794.794,0,0,1,.794-.794h14.76884a.79428.79428,0,0,1,.79324.75627c.26881,5.64765,3.23731,8.05734,9.92593,8.05733,3.992,0,8.25778-1.31405,8.25778-5.00225,0-3.354-4.25929-4.58806-11.20845-6.32379-1.46008-.3647-2.97005-.74193-4.4901-1.16982-3.84057-1.10275-8.21669-2.58817-11.58245-5.25322a14.24035,14.24035,0,0,1-5.59144-11.8678,15.78666,15.78666,0,0,1,7.93831-13.93489,31.099,31.099,0,0,1,15.96166-4.08935c11.69876,0,23.503,5.8924,23.503,19.05641a.794.794,0,0,1-.794.794H261.06045a.79427.79427,0,0,1-.79324-.8311,4.79738,4.79738,0,0,0-1.2727-3.68588c-1.40193-1.46913-3.977-2.3116-7.06547-2.3116-1.06075,0-6.3521.19528-6.3521,4.04942,0,2.85619,4.89073,4.01865,10.5535,5.36461,1.7201.40877,3.49861.83162,5.30194,1.33447,3.5697,1.00492,8.10916,2.52083,11.57392,5.35066a14.50176,14.50176,0,0,1,5.44308,11.77087C278.44938,304.60563,269.15929,311.812,252.96138,311.812Zm-23.80849-20.24756c.18791,6.13808,2.57745,10.89,7.10968,14.133,4.13858,2.96126,9.913,4.52654,16.69881,4.52653,6.78555,0,12.52379-1.37427,16.5944-3.97433,4.84755-3.09632,7.30558-7.8768,7.30557-14.20887,0-9.80587-8.01612-13.38474-15.85751-15.59244-1.77179-.49406-3.53532-.91329-5.24069-1.31857-6.31772-1.50169-11.77423-2.79868-11.77423-6.9096,0-4.15642,4.10162-5.63744,7.94012-5.63744,3.52033,0,6.51416,1.02171,8.21436,2.80333a6.15818,6.15818,0,0,1,1.70718,4.02524h13.16815c-.47275-11.51-11.23275-16.67439-21.89868-16.67438-11.10583,0-22.31195,5.08226-22.31194,16.43622,0,9.662,7.69975,13.20459,16.02034,15.5936,1.49317.4204,2.99151.79466,4.44048,1.15651,6.65993,1.6635,12.41161,3.10006,12.41161,7.86452a5.69091,5.69091,0,0,1-3.27478,5.17465,14.15679,14.15679,0,0,1-6.571,1.41563c-7.24588,0-10.90682-2.80566-11.45994-8.81361Z"/><path class="cls-4" d="M284.3319,253.1339h14.76883l0,56.693H284.33193Z"/><path d="M299.10069,310.62094H284.33185a.794.794,0,0,1-.794-.794l0-56.693a.794.794,0,0,1,.794-.794h14.76884a.794.794,0,0,1,.794.794l0,56.693A.794.794,0,0,1,299.10069,310.62094Zm-13.97483-1.588h13.18081l0-55.105H285.12583Z"/></svg>